<?xml version="1.0" encoding="UTF-8" standalone="no"?>
<!-- Created with Inkscape (http://www.inkscape.org/) -->

<svg
   xmlns:dc="http://purl.org/dc/elements/1.1/"
   xmlns:cc="http://creativecommons.org/ns#"
   xmlns:rdf="http://www.w3.org/1999/02/22-rdf-syntax-ns#"
   xmlns:svg="http://www.w3.org/2000/svg"
   xmlns="http://www.w3.org/2000/svg"
   xmlns:sodipodi="http://sodipodi.sourceforge.net/DTD/sodipodi-0.dtd"
   xmlns:inkscape="http://www.inkscape.org/namespaces/inkscape"
   width="395.13565"
   height="179.22945"
   id="svg2"
   sodipodi:version="0.32"
   inkscape:version="0.48.3.1 r9886"
   sodipodi:docname="Crosswalk Logo.svg"
   inkscape:output_extension="org.inkscape.output.svg.inkscape"
   version="1.1">
  <defs
     id="defs4">
    <inkscape:perspective
       sodipodi:type="inkscape:persp3d"
       inkscape:vp_x="0 : 526.18109 : 1"
       inkscape:vp_y="0 : 1000 : 0"
       inkscape:vp_z="744.09448 : 526.18109 : 1"
       inkscape:persp3d-origin="372.04724 : 350.78739 : 1"
       id="perspective10" />
    <inkscape:perspective
       id="perspective2410"
       inkscape:persp3d-origin="372.04724 : 350.78739 : 1"
       inkscape:vp_z="744.09448 : 526.18109 : 1"
       inkscape:vp_y="0 : 1000 : 0"
       inkscape:vp_x="0 : 526.18109 : 1"
       sodipodi:type="inkscape:persp3d" />
    <inkscape:perspective
       id="perspective2560"
       inkscape:persp3d-origin="372.04724 : 350.78739 : 1"
       inkscape:vp_z="744.09448 : 526.18109 : 1"
       inkscape:vp_y="0 : 1000 : 0"
       inkscape:vp_x="0 : 526.18109 : 1"
       sodipodi:type="inkscape:persp3d" />
    <inkscape:perspective
       id="perspective2629"
       inkscape:persp3d-origin="372.04724 : 350.78739 : 1"
       inkscape:vp_z="744.09448 : 526.18109 : 1"
       inkscape:vp_y="0 : 1000 : 0"
       inkscape:vp_x="0 : 526.18109 : 1"
       sodipodi:type="inkscape:persp3d" />
    <inkscape:perspective
       sodipodi:type="inkscape:persp3d"
       inkscape:vp_x="0 : 526.18109 : 1"
       inkscape:vp_y="0 : 1000 : 0"
       inkscape:vp_z="744.09448 : 526.18109 : 1"
       inkscape:persp3d-origin="372.04724 : 350.78739 : 1"
       id="perspective2439" />
    <inkscape:perspective
       id="perspective2430"
       inkscape:persp3d-origin="372.04724 : 350.78739 : 1"
       inkscape:vp_z="744.09448 : 526.18109 : 1"
       inkscape:vp_y="0 : 1000 : 0"
       inkscape:vp_x="0 : 526.18109 : 1"
       sodipodi:type="inkscape:persp3d" />
  </defs>
  <sodipodi:namedview
     id="base"
     pagecolor="#ffffff"
     bordercolor="#666666"
     borderopacity="1.0"
     inkscape:pageopacity="0.0"
     inkscape:pageshadow="2"
     inkscape:zoom="0.49982792"
     inkscape:cx="-76.607343"
     inkscape:cy="-236.49751"
     inkscape:document-units="px"
     inkscape:current-layer="layer1"
     showgrid="false"
     showguides="true"
     inkscape:guide-bbox="true"
     inkscape:window-width="1366"
     inkscape:window-height="744"
     inkscape:window-x="0"
     inkscape:window-y="24"
     fit-margin-top="0"
     fit-margin-left="0"
     fit-margin-right="0"
     fit-margin-bottom="0"
     inkscape:window-maximized="1" />
  <metadata
     id="metadata7">
    <rdf:RDF>
      <cc:Work
         rdf:about="">
        <dc:format>image/svg+xml</dc:format>
        <dc:type
           rdf:resource="http://purl.org/dc/dcmitype/StillImage" />
      </cc:Work>
    </rdf:RDF>
  </metadata>
  <g
     inkscape:label="Ebene 1"
     inkscape:groupmode="layer"
     id="layer1"
     transform="translate(-47.516527,-110.45413)">
    <rect
       style="fill:#008000;stroke:#008000;stroke-width:1.09758437"
       id="rect2616"
       width="394.03806"
       height="155.95613"
       x="48.065319"
       y="120.0901" />
    <text
       xml:space="preserve"
       style="font-size:48px;font-style:normal;font-variant:normal;font-weight:normal;font-stretch:normal;fill:#d3bc5f;fill-opacity:1;stroke:none;font-family:Stencil;-inkscape-font-specification:Stencil"
       x="152.05232"
       y="178.06129"
       id="text2618"><tspan
         sodipodi:role="line"
         id="tspan2620"
         x="152.05232"
         y="178.06129">CROSSWALK</tspan></text>
    <text
       xml:space="preserve"
       style="font-size:24px;font-style:normal;font-variant:normal;font-weight:normal;font-stretch:normal;fill:#d3bc5f;fill-opacity:1;stroke:none;font-family:Stencil;-inkscape-font-specification:Stencil"
       x="154.05301"
       y="206.07092"
       id="text2735"><tspan
         sodipodi:role="line"
         x="154.05301"
         y="206.07092"
         id="tspan2739"
         style="font-size:21px;fill:#d3bc5f;fill-opacity:1">basic christian training</tspan></text>
    <g
       transform="translate(-29.105669,10.411971)"
       id="layer1-3"
       inkscape:label="Ebene 1">
      <g
         inkscape:export-ydpi="90"
         inkscape:export-xdpi="90"
         inkscape:export-filename="C:\Dokumente und Einstellungen\Christoph\Eigene Dateien\Eigene Bilder\CI\CrossWalk\Crosswalk Fussabdruck.png"
         id="g2445"
         transform="matrix(0.8764242,0,0,0.8764242,122.29303,-226.59587)"
         style="fill:#d3bc5f;stroke:#decd87">
        <path
           inkscape:connector-curvature="0"
           style="fill:#d3bc5f;stroke:#d3bc5f;stroke-opacity:1"
           d="m -31.098189,404.6403 c 1.103569,-3.39865 2.419456,-8.1187 2.997606,-10.75234 1.065011,-4.85139 2.850873,-7.48381 10.073265,-14.8483 2.232453,-2.27638 3.522085,-3.23274 5.872503,-4.35492 2.7720986,-1.3235 3.2832489,-1.44006 6.421674,-1.46435 l 3.4098407,-0.0264 4.1675832,2.36997 c 4.6669657,2.65395 5.8725036,3.7713 5.8725036,5.44293 0,1.62812 -0.5180344,2.3991 -2.7582846,4.10506 -5.32626604,4.05598 -6.5437686,5.07883 -6.7784377,5.69472 -0.4275372,1.12205 -3.3566397,1.3393 -5.4675887,0.40553 -0.969289,-0.42876 -1.8974628,-0.77957 -2.0626051,-0.77957 -0.3023809,0 -1.0151894,2.04216 -1.8970004,5.4348 -0.505054,1.94313 -1.827713,3.53138 -4.308436,5.17359 -0.786946,0.52095 -1.790822,1.28179 -2.230836,1.69076 -0.440017,0.40897 -1.999848,1.71942 -3.466292,2.91211 -1.466444,1.19269 -3.188925,2.59496 -3.827736,3.11614 -0.638807,0.52119 -1.604686,1.14956 -2.146396,1.39638 -0.54171,0.24682 -1.068663,0.76896 -1.171008,1.16032 -0.136746,0.52293 -0.533022,0.71156 -1.494821,0.71156 -1.295883,0 -1.311091,-0.0196 -1.547662,-1.98907 -0.312827,-2.60444 -0.25162,-3.57036 0.342128,-5.39892 z m 1.379444,14.01824 c 0.235699,-0.41676 0.912484,-1.16608 1.503963,-1.66516 0.591482,-0.49907 1.078491,-1.09579 1.082249,-1.32604 0.0077,-0.47219 1.956124,-2.13922 4.630731,-3.96197 0.987812,-0.6732 2.266502,-1.81364 2.841534,-2.53432 1.263766,-1.58386 2.850846,-1.78848 3.551557,-0.45788 0.246907,0.46885 0.636512,0.97562 0.865789,1.12615 0.270071,0.1773 0.388661,1.75079 0.33676,4.46826 l -0.08011,4.19458 -2.00368,2.12722 c -1.102022,1.16997 -2.856139,2.99941 -3.898035,4.0654 -1.041896,1.066 -2.687614,2.82919 -3.657153,3.91819 -1.378757,1.54865 -2.008335,1.98001 -2.889862,1.98001 -0.619883,0 -1.341151,-0.25796 -1.602815,-0.57325 -0.269703,-0.32497 -0.608505,-2.41712 -0.782267,-4.83061 -0.400622,-5.56442 -0.399368,-5.64525 0.101341,-6.53058 z m 2.252442,17.60013 c 0.492385,-0.25779 3.143468,-2.74623 5.891296,-5.52987 5.343447,-5.41307 5.956677,-5.75299 7.784696,-4.31506 0.841159,0.66165 0.97878,1.13326 1.21615,4.16758 0.147215,1.88182 0.425351,3.4215 0.618087,3.4215 0.568746,0 0.40002,1.76042 -0.217877,2.27323 -0.312569,0.25941 -0.568307,0.75104 -0.568307,1.09253 0,0.34148 -1.040316,1.55667 -2.311812,2.70042 -3.783657,3.40352 -6.38648,6.15734 -7.24745,7.6679 -0.775257,1.36017 -0.895117,1.42077 -2.810489,1.42077 -2.312777,0 -2.86208,-0.58836 -2.744539,-2.93965 0.03897,-0.77955 -0.05871,-3.23386 -0.217074,-5.45401 -0.284722,-3.99165 -0.277951,-4.04186 0.607319,-4.50534 z m 4.548254,17.22195 c 0.491396,-0.4355 1.660661,-1.70625 2.598367,-2.82389 0.937706,-1.11765 2.203666,-2.46625 2.813247,-2.9969 3.363759,-2.92822 5.528693,-5.12656 5.752076,-5.84083 0.138818,-0.44389 0.655299,-1.289 1.147733,-1.87803 0.492434,-0.58903 0.8953374,-1.24815 0.8953374,-1.46472 0,-0.21657 0.6138016,-1.22993 1.3640007,-2.25191 1.0428809,-1.42068 1.3773673,-2.25779 1.420767,-3.55571 0.031223,-0.93366 -0.056369,-1.74001 -0.1946413,-1.79189 -0.1382766,-0.0519 -0.4231006,-2.91738 -0.6329422,-6.36777 -0.3075677,-5.05724 -0.5257596,-6.52625 -1.125471,-7.57743 -0.5834806,-1.02273 -0.7951332,-2.33796 -0.9813067,-6.098 -0.1418459,-2.86473 -0.4644509,-5.3375 -0.8016309,-6.14449 -0.310345,-0.74275 -0.56426,-1.70653 -0.56426,-2.14173 0,-0.76511 2.083185,-3.02178 2.7894843,-3.02178 0.1910609,0 0.536671,-0.23537 0.7680249,-0.52303 0.2571891,-0.3198 1.5575812,-0.61202 3.346611,-0.75204 2.7590423,-0.21595 2.9511944,-0.1807 3.36804748,0.61775 0.24314059,0.46571 1.14284981,1.64063 1.99935252,2.61092 2.0647382,2.33903 4.0199409,5.43441 4.0199409,6.36416 0,0.41167 0.306916,0.91274 0.6820326,1.1135 0.3751203,0.20076 1.1744476,1.35758 1.7762807,2.57071 0.6018369,1.21314 1.6800362,2.70442 2.3960042,3.31398 0.7159684,0.60955 1.5484584,1.6987 1.8499784,2.42034 l 0.548219,1.31208 1.59756,-1.56789 c 0.90071,-0.88398 1.963152,-1.56789 2.435684,-1.56789 0.460965,0 0.839283,-0.12787 0.840707,-0.28415 0.0014,-0.15629 0.638394,-0.71039 1.415489,-1.23133 1.317104,-0.88296 6.025519,-4.52469 8.62201,-6.66869 0.739212,-0.6104 1.506904,-0.90022 2.195691,-0.82893 0.976507,0.10108 1.163377,0.40502 2.396834,3.89834 1.736447,4.91785 1.919309,6.30786 1.075896,8.17821 -0.367808,0.81565 -0.797986,1.483 -0.955949,1.483 -0.157966,0 -1.487778,1.19345 -2.955138,2.6521 -1.467361,1.45866 -2.919521,2.6521 -3.227028,2.6521 -0.307503,0 -0.894371,0.42623 -1.304151,0.94718 -0.409779,0.52095 -1.099742,0.94718 -1.533254,0.94718 -0.489039,0 -1.006861,0.42284 -1.3643,1.11405 -0.316853,0.61272 -1.04582,1.39238 -1.619932,1.73257 -0.574111,0.34019 -1.53392,1.30221 -2.132916,2.13782 -0.923987,1.28898 -1.055789,1.7622 -0.869445,3.12171 0.1208,0.88134 0.596961,2.44424 1.058135,3.47311 0.560593,1.25067 0.853202,2.68686 0.882868,4.33333 0.02441,1.35446 0.251445,2.83506 0.504539,3.29021 0.25309,0.45516 0.460162,1.58774 0.460162,2.51685 0,1.15208 0.180725,1.75864 0.568307,1.90737 0.369505,0.14179 0.568306,0.73027 0.568306,1.68227 0,2.44817 0.833006,5.87264 1.767673,7.26686 0.486433,0.72561 0.884426,1.79079 0.884426,2.36707 0,0.59 0.569898,1.84104 1.304397,2.86341 1.24511,1.7331 2.259243,4.98846 2.757204,8.8506 0.234753,1.82072 -0.82123,4.01351 -2.373972,4.92965 -0.663624,0.39155 -1.613181,1.24354 -2.110131,1.89332 -1.588846,2.07747 -5.421155,5.6463 -6.302462,5.86915 -1.734362,0.43858 -2.748059,-0.17398 -3.719534,-2.24764 -0.509135,-1.08677 -1.031981,-2.61628 -1.161877,-3.3989 -0.184953,-1.11433 -0.763008,-1.91578 -2.6651728,-3.69516 -1.3359453,-1.24972 -2.8376354,-2.53996 -3.3370824,-2.86721 -0.4994507,-0.32725 -1.0172464,-1.09199 -1.1506583,-1.69941 -0.1334119,-0.60743 -0.3950907,-1.19868 -0.5815029,-1.31389 -0.186416,-0.11521 -0.6879126,-0.99839 -1.114442,-1.96263 -0.4265294,-0.96424 -1.099166,-1.97986 -1.4947492,-2.25694 -0.4116322,-0.28832 -0.89813313,-1.33791 -1.13751532,-2.45411 -0.23005059,-1.07268 -0.85786669,-2.82049 -1.39514772,-3.88402 -0.92563916,-1.83228 -1.25122596,-3.26295 -2.02375186,-8.89267 -0.4360542,-3.1777 -0.8379722,-3.53334 -2.1758876,-1.92538 -0.5825069,0.70008 -1.5563612,1.70676 -2.1641199,2.23708 -4.576529,3.99336 -10.829427,11.20572 -10.829427,12.49113 0,0.86147 -2.351396,1.03296 -3.1543,0.23006 -0.815005,-0.815 -2.124978,-5.28688 -2.384986,-8.14166 -0.207178,-2.27475 -0.152238,-2.54387 0.667692,-3.27052 z m 5.235,15.77706 c 0.614847,-0.9268 1.859841,-2.37598 2.766657,-3.22041 0.906813,-0.84443 2.491552,-2.55827 3.521646,-3.80855 2.3752913,-2.88301 2.7708215,-3.19363 4.0853909,-3.20835 1.7554391,-0.0197 3.4756734,2.59178 4.6322195,7.03207 0.7950915,3.05256 0.699472,3.64521 -0.822859,5.10015 -0.7513698,0.71811 -2.4555476,2.66959 -3.7870563,4.33662 -1.3315126,1.66704 -2.6956042,3.37196 -3.0313141,3.78872 -0.335714,0.41675 -0.850221,1.31184 -1.143354,1.98907 -0.375223,0.86689 -0.783763,1.2298 -1.380341,1.22616 -1.753458,-0.0107 -2.539854,-0.45774 -2.898456,-1.64764 -0.436391,-1.44802 -2.197199,-5.86554 -2.699268,-6.77193 -0.680559,-1.22862 -0.388021,-3.09036 0.756735,-4.81591 z m 8.2938729,14.94557 c 0.5347729,-1.04189 2.5402026,-3.48267 4.4565066,-5.42394 3.3075417,-3.35064 3.5568693,-3.52351 4.91775568,-3.40984 1.36410682,0.11394 1.54214972,0.29414 3.67459972,3.71902 1.2325666,1.9796 2.6606533,4.4911 3.1735237,5.58111 0.5128704,1.09 1.1140139,2.09401 1.3358695,2.23113 0.2218594,0.13711 0.9978407,1.54693 1.724402,3.13293 0.7265579,1.586 1.5818559,3.18027 1.9006599,3.54284 1.060056,1.20558 0.347399,6.07049 -1.9846973,13.54846 l -1.2406365,3.97815 -2.1536062,-0.10018 c -2.5869628,-0.12033 -3.1631047,-0.60341 -5.5079158,-4.61828 -0.89870901,-1.5388 -2.3768485,-3.54066 -3.2847602,-4.44857 -0.9079118,-0.90791 -1.6507456,-1.86388 -1.6507456,-2.12439 0,-0.26051 -0.9377063,-1.65038 -2.0837916,-3.0886 -1.1460854,-1.43823 -2.0837916,-2.75075 -2.0837916,-2.91674 0,-0.16598 -0.5114761,-1.41851 -1.1366136,-2.78342 -1.3488916,-2.94511 -1.3600076,-4.28057 -0.056759,-6.81968 z M 2.0233337,389.29569 c 1.4846939,-1.35429 4.0124392,-3.28397 5.6172125,-4.2882 2.5412108,-1.59022 3.1123098,-1.80118 4.4251138,-1.63464 0.829034,0.10517 1.573342,0.38923 1.654011,0.63125 0.08067,0.24201 0.595813,0.9776 1.144759,1.63464 3.043787,3.64313 3.004991,5.52914 -0.174602,8.48796 -1.082477,1.00732 -1.714987,1.72953 -4.8336998,5.51918 -1.7683169,2.14874 -3.0289313,2.33962 -4.6675795,0.70675 -0.589069,-0.58699 -1.3359946,-1.22633 -1.6598272,-1.42076 -0.3238363,-0.19443 -1.2874687,-1.12168 -2.1414103,-2.06055 -1.14350146,-1.25723 -1.61991683,-2.15582 -1.80801881,-3.41017 l -0.25540086,-1.70313 2.69944217,-2.46233 z m 10.5240603,10.78024 c 2.031697,-1.8324 4.375963,-4.08306 5.209479,-5.00146 1.37631,-1.51649 1.65466,-1.65843 3.03097,-1.54563 1.431629,0.11732 1.625543,0.29073 3.504558,3.1339 1.494924,2.262 1.989074,3.35646 1.989074,4.40547 0,1.48237 -0.936304,4.1404 -1.458476,4.1404 -0.354691,0 -4.709793,3.43051 -6.075893,4.78598 -0.497268,0.4934 -1.055588,0.89709 -1.240708,0.89709 -0.185124,0 -0.49864,0.42623 -0.696703,0.94717 -0.297315,0.782 -0.609524,0.94572 -1.790261,0.93878 -1.30254,-0.008 -1.540009,-0.18058 -2.661475,-1.93806 -0.677233,-1.06131 -1.231332,-2.18382 -1.231332,-2.49446 0,-0.31064 -0.511476,-1.21059 -1.1366133,-1.99989 -0.6251375,-0.7893 -1.1366136,-1.77317 -1.1366136,-2.18637 0,-0.46996 1.3832629,-1.99886 3.6939939,-4.08292 z m 2.999399,130.03388 c 0.387558,-0.38756 3.362614,-0.29979 4.500315,0.13276 0.557433,0.21193 2.79727,0.63573 4.97742,0.94177 2.180146,0.30604 4.103168,0.6425 4.273376,0.7477 0.170208,0.10519 0.420323,0.66172 0.555808,1.23673 0.135484,0.57502 0.845185,2.6112 1.577115,4.52487 1.07296,2.80532 1.308618,3.9008 1.2164,5.65465 l -0.114377,2.17527 -2.088554,0.41551 c -1.148707,0.22852 -2.683136,0.77738 -3.409841,1.21968 -2.652932,1.61466 -6.814919,1.44902 -6.814919,-0.27122 0,-0.37659 -0.260076,-0.94479 -0.577949,-1.26266 -0.317873,-0.31787 -0.759356,-1.55927 -0.981076,-2.75865 -0.221715,-1.19938 -0.811292,-2.98618 -1.310167,-3.97066 -0.498874,-0.98449 -1.019137,-2.74368 -1.156136,-3.90932 -0.136996,-1.16564 -0.395542,-2.20986 -0.574543,-2.32049 -0.383168,-0.23681 -0.438858,-2.18996 -0.07287,-2.55594 z m 7.295941,-98.80972 c 0.817619,-0.70148 2.717461,-2.29837 4.221872,-3.54865 1.50441,-1.25027 3.663298,-3.16831 4.797528,-4.2623 1.526688,-1.47253 2.348899,-1.98907 3.166113,-1.98907 0.750946,0 1.103879,0.19035 1.103879,0.59537 0,0.32745 0.255738,0.85111 0.568307,1.16368 0.312569,0.31256 0.568307,0.87552 0.568307,1.25101 0,0.37548 0.338366,2.0256 0.751927,3.66693 1.142308,4.53357 1.06745,4.9745 -1.181999,6.96237 -1.061093,0.93771 -2.123001,1.88337 -2.359795,2.10148 -1.628196,1.4997 -5.832287,4.37528 -6.92283,4.73519 -1.507142,0.49741 -3.168924,0.21102 -3.168924,-0.54612 0,-0.28308 -0.244777,-0.71785 -0.543953,-0.96614 -0.299175,-0.24829 -0.660209,-0.99376 -0.802297,-1.65659 -0.142088,-0.66284 -0.364781,-1.37565 -0.494874,-1.58403 -0.470627,-0.75383 -1.178566,-3.04919 -1.18414,-3.83934 -0.0034,-0.47581 0.605865,-1.33307 1.480879,-2.08379 z m -0.497037,119.37283 c 0.283581,-0.95855 6.386938,-3.50201 9.524227,-3.96905 1.887657,-0.28101 3.883331,0.89736 3.883331,2.29296 0,0.5307 0.263179,1.59479 0.584845,2.36464 1.003114,2.40079 0.03705,6.9111 -1.480288,6.9111 -0.219522,0 -1.601405,1.27869 -3.07085,2.84153 -2.515685,2.67559 -2.766218,2.84154 -4.289928,2.84154 -1.207849,0 -1.671947,-0.16814 -1.830111,-0.66303 -0.116544,-0.36466 -0.352702,-1.00401 -0.524793,-1.42076 -0.172091,-0.41676 -0.402206,-1.09873 -0.511366,-1.51549 -0.109157,-0.41676 -0.657728,-1.95119 -1.219045,-3.40984 -0.99476,-2.58501 -1.418865,-5.08091 -1.066022,-6.2736 z m 4.219932,-102.6996 c 1.049518,-0.95417 1.369736,-1.18528 4.839731,-3.49285 1.046915,-0.6962 2.989657,-2.31553 4.317207,-3.59851 2.372824,-2.29316 3.04207,-2.58142 4.861296,-2.09389 0.668446,0.17914 0.85246,0.50182 0.85246,1.49483 0,1.19712 0.179547,2.74797 1.20292,10.39025 0.237181,1.77122 0.589205,3.42545 0.782274,3.67605 0.193065,0.25061 0.507411,2.80523 0.698548,5.67695 0.434482,6.52796 0.229346,7.30398 -2.224883,8.41663 -2.851624,1.29281 -4.758789,2.5803 -5.070536,3.42304 -0.223435,0.604 -0.62028,0.78186 -1.744512,0.78186 -0.800404,0 -1.714987,-0.21311 -2.032409,-0.47359 -0.781885,-0.64161 -2.763222,-5.29801 -3.345164,-7.86158 -0.260163,-1.14608 -0.861451,-3.27723 -1.336188,-4.73589 -0.474737,-1.45865 -1.161877,-3.93078 -1.526976,-5.49363 -0.365099,-1.56284 -0.810481,-3.0035 -0.98974,-3.20146 -0.629536,-0.69521 -0.315611,-1.97034 0.715972,-2.90821 z m 2.273227,117.61913 c 0.364663,-0.41379 1.131877,-1.05621 1.70492,-1.42759 0.573043,-0.37138 1.041896,-1.00197 1.041896,-1.4013 0,-0.39933 0.28984,-0.83728 0.644089,-0.97322 0.354248,-0.13594 1.242314,-0.8978 1.973483,-1.69303 0.731168,-0.79523 1.624713,-1.44587 1.985652,-1.44587 0.36094,0 0.761622,-0.17049 0.890408,-0.37887 0.128786,-0.20838 0.956707,-0.37887 1.839825,-0.37887 1.37406,0 1.819128,0.2186 3.085501,1.51548 1.41924,1.45344 1.578286,1.51549 3.884419,1.51549 2.531257,0 4.379527,0.66861 4.787549,1.73191 0.188412,0.49099 0.53999,0.57131 1.656114,0.37834 0.779308,-0.13473 2.024555,-0.33856 2.767211,-0.45294 0.742655,-0.11439 1.551989,-0.53095 1.798516,-0.92571 0.39256,-0.62858 0.318961,-0.74605 -0.592543,-0.94574 -0.572425,-0.12541 -1.240102,-0.28839 -1.483724,-0.36216 -0.49601,-0.15022 -2.438684,-4.10747 -3.157963,-6.43282 -0.257826,-0.83352 -0.618667,-1.67745 -0.801874,-1.87541 -0.466758,-0.50434 -0.410325,-6.34898 0.0898,-9.30129 0.229448,-1.35446 0.400679,-3.08159 0.380512,-3.83806 -0.03694,-1.38582 1.101545,-3.36049 1.937479,-3.36049 0.226967,0 2.262729,-0.93771 4.523912,-2.08379 2.261182,-1.14609 4.443995,-2.08379 4.850695,-2.08379 0.934991,0 1.232569,0.60965 2.126705,4.35701 0.8906,3.73254 1.009447,14.99375 0.193927,18.37526 -1.306733,5.41829 -2.296122,7.19855 -4.00063,7.19855 -0.762725,0 -0.77622,0.0973 -0.424841,3.06387 0.264804,2.23564 0.24385,3.23421 -0.07752,3.694 -0.242232,0.34656 -0.72124,1.1862 -1.064462,1.86585 -1.267736,2.5104 -6.585319,5.82982 -10.461076,6.53017 -4.856614,0.8776 -12.001037,-0.76717 -15.077945,-3.47119 -2.484137,-2.18309 -3.787803,-3.49805 -3.788287,-3.82112 -2.32e-4,-0.15629 -0.426655,-0.28416 -0.947603,-0.28416 -0.821662,0 -0.947178,-0.16804 -0.947178,-1.26807 0,-0.69745 0.298361,-1.60664 0.663025,-2.02044 z m 3.586671,-34.56142 c 0.499671,-0.93521 0.683086,-1.06114 2.948857,-2.0246 0.729327,-0.31012 2.089512,-1.20227 3.022631,-1.98254 1.905741,-1.59358 2.982784,-2.09199 4.520736,-2.09199 1.567648,0 2.232669,1.00008 2.225781,3.34719 -0.0033,1.11162 0.184234,2.21129 0.41666,2.44372 0.232422,0.23242 0.422585,0.80875 0.422585,1.28074 0,4.04191 -5.379129,9.58601 -9.311021,9.59657 -1.050018,0.003 -2.289208,-1.40551 -2.622895,-2.98091 -0.148896,-0.70297 -0.584928,-1.81116 -0.968959,-2.46267 -0.953755,-1.61802 -1.257451,-3.99676 -0.654375,-5.12551 z m 9.079622,11.02139 c 2.612817,-2.24321 4.222641,-2.974 5.85764,-2.65913 0.940188,0.18106 1.173618,1.50314 1.227263,6.95075 0.03714,3.77255 -0.07599,4.7785 -0.660464,5.8725 -0.580843,1.08721 -0.950379,1.341 -2.09432,1.43836 -1.701723,0.14482 -4.043802,-1.53606 -5.143328,-3.69131 -0.393647,-0.77161 -0.983917,-1.62551 -1.311717,-1.89756 -0.36899,-0.30623 -0.595998,-1.10081 -0.595998,-2.08611 0,-1.50481 0.148184,-1.7187 2.720924,-3.9275 z m 6.18935,-23.75076 c 0.333012,-0.62514 1.404725,-1.77596 2.38158,-2.55738 1.557722,-1.24608 2.027003,-1.42077 3.816722,-1.42077 2.237079,0 4.264283,0.96427 5.049379,2.40181 0.498819,0.91336 0.943155,3.35226 1.297041,7.1193 0.234924,2.50072 0.230245,2.51686 -1.043009,3.59626 -0.703445,0.59636 -2.06657,1.90636 -3.029165,2.91113 -1.633991,1.70558 -1.860007,1.81896 -3.404665,1.70793 -1.39012,-0.0999 -1.776394,-0.31334 -2.417407,-1.33566 -0.419607,-0.6692 -0.957797,-1.2233 -1.195975,-1.23133 -0.541312,-0.0182 -0.892995,-0.9016 -0.892995,-2.24303 0,-0.56642 -0.198324,-1.22818 -0.440718,-1.47057 -0.738932,-0.73893 -0.826387,-6.15313 -0.120788,-7.47769 z"
           id="path2447" />
      </g>
    </g>
  </g>
</svg>
