<?xml version="1.0"?>
<svg xmlns:rdf="http://www.w3.org/1999/02/22-rdf-syntax-ns#" xmlns="http://www.w3.org/2000/svg" xmlns:cc="http://creativecommons.org/ns#" xmlns:xlink="http://www.w3.org/1999/xlink" xmlns:dc="http://purl.org/dc/elements/1.1/" xmlns:svg="http://www.w3.org/2000/svg" id="svg1314" viewBox="0 0 552.66 380.2" version="1.0">
  <defs id="defs1317">
    <radialGradient id="radialGradient2805" gradientUnits="userSpaceOnUse" cy="253.16" cx="503.36" gradientTransform="matrix(1 0 0 .11048 -216.56 23.634)" r="132.92">
      <stop id="stop2801" stop-color="#fff" offset="0"/>
      <stop id="stop2803" stop-color="#fff" stop-opacity="0" offset="1"/>
    </radialGradient>
    <radialGradient id="radialGradient2807" gradientUnits="userSpaceOnUse" cy="464.09" cx="629.97" gradientTransform="matrix(-.64024 -3.8135 .62140 -.10432 528.35 2713.3)" r="28.569">
      <stop id="stop2793" stop-color="#fff" offset="0"/>
      <stop id="stop2795" stop-color="#fff" stop-opacity="0" offset="1"/>
    </radialGradient>
  </defs>
  <path id="rect1331" d="m56.359 67.636l0.323-17.36 21.217-0.299 25.531 1.073 0.57 1.68v37.675h-22.956l-23.525-0.859-0.363-6.011-0.797-15.899z" stroke="#000" fill-opacity=".95455"/>
  <path id="rect1333" d="m162.72 0.57167l-38.31 23.875-19.81 11.656v35.531l-0.41 24.594 27.91 23.372 37.5 23.1h65l65.81 3.22 110.25-3.13c-10.9-10.12-24.17-18.64-33.94-27.03l-4.03-2.94c0.08-0.19 0.14-0.37 0.16-0.56-3.88-3.76-6.87-7.52-8.44-11.47-8.22-26.73 17.48-41.334 33.66-53.343 14.46-7.93 38.69-10.22 45.59-25.188 2.66-5.825 2.97-6.669 4.35-16.687-0.02-0.5869-0.06-1.177-0.1-1.7816l-148.31-3.2187-65-0.00003h-71.88z" stroke="#000" fill="#2f7458"/>
  <path id="rect1341" d="m459.83 366.31c-3.81-6.13-7.62-12.27-11.44-18.4v-51.61c-1.52-19.87-3.05-39.75-4.57-59.62-4.2-16.83-8.39-33.65-12.58-50.47-6.1-13.77-12.21-27.53-18.31-41.3-17.44-17.15-42.71-29.52-48.53-44.13-8.21-26.729 17.48-41.333 33.66-53.343 14.46-7.93 38.71-10.224 45.61-25.192 2.86-6.268 2.93-6.291 4.61-18.737 11.13 0.5455 10.11 2.8598 18.88 7.402 11.03 4.906 22.62 35.683 32.53 32.82 7.24 7.443 22.81 59.74 30.05 64.32 7.3 17.69 1.66 24.05 14.62 39.32 8.38 16.41-1.03 62.78 7.36 79.19 3.05 13.36-10.89 53.44-7.84 66.8-5.85 10.96-26.25 43.78-23.2 57.16-25.03 19.65-19.22 28.01-33.32 21.77-6.29 4.42-23.34-2.16-27.53-5.98z" stroke="#000" fill-opacity=".90909"/>
  <path id="rect1335" d="m373.72 156.48l-9.68 0.22-13.78 0.31 2.75 42.34 10.06 50.03 6.78 42.38 10.84 35.72-0.28 0.34 13.41 2.94 7.65-0.53c0.53-4.8 1.09-9.6 0.63-14.53-1.34-19.49-2.67-38.98-4-58.47-2.68-15.63-5.36-31.25-8.03-46.88l-2.47-11.81-0.63-2.28c-4.41-13.27-8.83-26.52-13.25-39.78z" stroke="#000" stroke-width=".99995" fill="#e50000"/>
  <path id="rect1337" d="m18.699 55.892l38.216 2.429v23.563l-37.408-3.238-19.007-12.997 18.199-9.757z" stroke="#000" fill-opacity=".61039"/>
  <path id="rect1339" d="m412.16 142.6l-42.09 2.88c6.1 18.34 12.21 36.66 18.31 55 3.24 18.91 6.48 37.83 9.72 56.75 1.33 19.49 2.66 38.98 4 58.47 1.33 14.14-5.91 27.14 4 42.43 6.03 3.44 10.35 9.17 18.09 10.32 4.82 2.48 9.63 4.95 14.44 7.43 12.24 2.83 24.04-1.16 36.06-3.03-6.22-1.46-12.54-4.41-14.87-6.53-0.82-1.32-1.65-2.64-2.47-3.97-0.21-0.1-0.41-0.2-0.63-0.31-1.51-2.21-2.81-4.51-3.84-6.87-1.5-2.42-3-4.84-4.5-7.25v-51.63c-1.52-19.87-3.04-39.75-4.56-59.62-4.2-16.83-8.4-33.65-12.6-50.47-6.1-13.77-12.18-27.52-18.28-41.28 0-0.17-0.02-0.34-0.03-0.5-0.25-0.61-0.51-1.2-0.75-1.82z" stroke="#000" fill="#004c00"/>
  <path id="rect1343" d="m352.59 130.37h33.38l9.71 3.36 3.84 9.02-45.31 0.41-2.93-7.1 1.31-5.69z" stroke="#000" fill="#db0000"/>
  <path id="rect6676" d="m127.92 20.742c6.55-3.779 13.09-7.557 19.64-11.336 6.54-3.7781 14.71-5.1276 21.25-8.906 22.26 3.2387 44.52 0 66.78 0-0.14 7.0196-0.27 14.039-0.41 21.059l2.83 29.965c-16.04 0.812-32.08 1.624-48.12 2.436 0.4 18.085 0.81 33.741 14.15 43.73 2.19 9.21 10.05 15.99 22.75 18.72 2.13 3.75 7.48-0.59 11.22-0.89l-4.44 16.6 0.4 11.75-65.16-1.62-62.73-45.34-2.42-58.326c4.04-2.974 8.09-5.947 12.13-8.921s8.09-5.948 12.13-8.921z" stroke="#000" fill="#caccd5"/>
  <path id="path8953" d="m419.72 51.713c-6.47 13.713-59.42 14.574-132.65 14.574-73.22 0-135.07-2.48-132.64-14.574-7.28-17.76 59.42-14.574 132.64-14.574 73.23 0 131.03-2.377 132.65 14.574z" fill="url(#radialGradient2805)"/>
  <path id="path10508" d="m439.2 380.2c7.36-7.2-0.91-52.93-13.08-116.02s-17.51-136.32-30.2-115.79c-25.89-2.54 0.1 56.17 12.27 119.26 12.17 63.08-12.84 112.37 31.01 112.55z" fill="url(#radialGradient2807)"/>
  <path id="path10513" d="m183.87 191.39a3.6338 3.6338 0 1 1 -7.27 0 3.6338 3.6338 0 1 1 7.27 0z" transform="matrix(4.1753 -3.621 .66564 .76912 -728.28 539.5)" stroke="#000" stroke-width=".44904" fill="#caccd5"/>
  <path id="path11287" d="m183.87 191.39a3.6338 3.6338 0 1 1 -7.27 0 3.6338 3.6338 0 1 1 7.27 0z" transform="matrix(5.5232 -.10698 .019667 1.0174 -847.65 -107.03)" stroke="#000" stroke-width=".44904" fill="#bec3c9"/>
  <path id="path11289" d="m183.87 191.39a3.6338 3.6338 0 1 1 -7.27 0 3.6338 3.6338 0 1 1 7.27 0z" transform="matrix(4.8235 2.6957 -.49554 .88852 -622.58 -555.85)" stroke="#000" stroke-width=".44904" fill="#d4d3d8"/>
  <path id="path11291" d="m183.87 191.39a3.6338 3.6338 0 1 1 -7.27 0 3.6338 3.6338 0 1 1 7.27 0z" transform="matrix(5.5232 -.10698 .019667 1.0174 -798.34 -154.38)" stroke="#000" stroke-width=".44904" fill="#878c92"/>
  <path id="path11293" d="m183.87 191.39a3.6338 3.6338 0 1 1 -7.27 0 3.6338 3.6338 0 1 1 7.27 0z" transform="matrix(5.5232 -.10698 .019667 1.0174 -797.56 -47.212)" stroke="#000" stroke-width=".44904" fill="#81868c"/>
  <metadata>
    <rdf:RDF>
      <cc:Work>
        <dc:format>image/svg+xml</dc:format>
        <dc:type rdf:resource="http://purl.org/dc/dcmitype/StillImage"/>
        <cc:license rdf:resource="http://creativecommons.org/licenses/publicdomain/"/>
        <dc:publisher>
          <cc:Agent rdf:about="http://openclipart.org/">
            <dc:title>Openclipart</dc:title>
          </cc:Agent>
        </dc:publisher>
        <dc:title>Drill</dc:title>
        <dc:date>2006-12-31T03:19:32</dc:date>
        <dc:description>build, build, clip art, clipart, drill, drill, electric, electric, image, media, png, public domain, repair, repair, screwdriver, screwdriver, svg, tool, tool, work, work, </dc:description>
        <dc:source>http://openclipart.org/detail/2594/drill-by-machovka</dc:source>
        <dc:creator>
          <cc:Agent>
            <dc:title>Machovka</dc:title>
          </cc:Agent>
        </dc:creator>
        <dc:subject>
          <rdf:Bag>
            <rdf:li>build</rdf:li>
            <rdf:li>clip art</rdf:li>
            <rdf:li>clipart</rdf:li>
            <rdf:li>drill</rdf:li>
            <rdf:li>electric</rdf:li>
            <rdf:li>image</rdf:li>
            <rdf:li>media</rdf:li>
            <rdf:li>png</rdf:li>
            <rdf:li>public domain</rdf:li>
            <rdf:li>repair</rdf:li>
            <rdf:li>screwdriver</rdf:li>
            <rdf:li>svg</rdf:li>
            <rdf:li>tool</rdf:li>
            <rdf:li>work</rdf:li>
          </rdf:Bag>
        </dc:subject>
      </cc:Work>
      <cc:License rdf:about="http://creativecommons.org/licenses/publicdomain/">
        <cc:permits rdf:resource="http://creativecommons.org/ns#Reproduction"/>
        <cc:permits rdf:resource="http://creativecommons.org/ns#Distribution"/>
        <cc:permits rdf:resource="http://creativecommons.org/ns#DerivativeWorks"/>
      </cc:License>
    </rdf:RDF>
  </metadata>
</svg>
