<?xml version="1.0" encoding="UTF-8" standalone="no"?>
<!-- Created with Inkscape (http://www.inkscape.org/) -->

<svg
   xmlns:dc="http://purl.org/dc/elements/1.1/"
   xmlns:cc="http://creativecommons.org/ns#"
   xmlns:rdf="http://www.w3.org/1999/02/22-rdf-syntax-ns#"
   xmlns:svg="http://www.w3.org/2000/svg"
   xmlns="http://www.w3.org/2000/svg"
   version="1.1"
   width="210mm"
   height="297mm"
   id="svg2">
  <defs
     id="defs4" />
  <metadata
     id="metadata7">
    <rdf:RDF>
      <cc:Work
         rdf:about="">
        <dc:format>image/svg+xml</dc:format>
        <dc:type
           rdf:resource="http://purl.org/dc/dcmitype/StillImage" />
        <dc:title></dc:title>
      </cc:Work>
    </rdf:RDF>
  </metadata>
  <g
     id="layer1">
    <path
       d="m 361.93566,276.88609 a 215.71428,217.14285 0 0 1 184.87969,17.91978 L 435.71429,480.93362 z"
       transform="matrix(1.6078672,0,0,1.6038681,-1273.4278,-590.42047)"
       id="path3009"
       style="fill:none;stroke:#000000;stroke-width:1.86815047;stroke-linecap:butt;stroke-linejoin:miter;stroke-miterlimit:4;stroke-opacity:1;stroke-dasharray:none" />
    <path
       d="m 546.81535,294.80587 a 215.71428,217.14285 0 0 1 98.20559,238.65936 L 435.71429,480.93362 z"
       transform="matrix(1.6078672,0,0,1.6038681,-1173.4278,-436.13476)"
       id="path3030"
       style="fill:none;stroke:#000000;stroke-width:1.86815047;stroke-linecap:butt;stroke-linejoin:miter;stroke-miterlimit:4;stroke-opacity:1;stroke-dasharray:none" />
    <path
       d="M 645.02094,533.46524 A 215.71428,217.14285 0 0 1 435.7143,698.07648 l -10e-6,-217.14286 z"
       transform="matrix(1.6078672,0,0,1.6038681,-1190.5707,-318.9919)"
       id="path3032"
       style="fill:none;stroke:#000000;stroke-width:1.86815047;stroke-linecap:butt;stroke-linejoin:miter;stroke-miterlimit:4;stroke-opacity:1;stroke-dasharray:none" />
    <path
       d="M 435.7143,698.07648 A 215.71428,217.14285 0 0 1 361.93566,276.88609 l 73.77863,204.04753 z"
       transform="matrix(1.6078672,0,0,1.6038681,-1364.8564,-378.9919)"
       id="path3034"
       style="fill:none;stroke:#000000;stroke-width:1.86815047;stroke-linecap:butt;stroke-linejoin:miter;stroke-miterlimit:4;stroke-opacity:1;stroke-dasharray:none" />
    <g
       id="g3832">
      <path
         d="m 651.42857,480.93362 a 215.71428,217.14285 0 1 1 -431.42855,0 215.71428,217.14285 0 1 1 431.42855,0 z"
         transform="matrix(0.30499138,0,0,0.3042328,246.26694,334.33167)"
         id="path2985-1"
         style="fill:none;stroke:#000000;stroke-width:9.84859943;stroke-linecap:butt;stroke-linejoin:miter;stroke-miterlimit:4;stroke-opacity:1;stroke-dasharray:19.69719958, 9.84859979;stroke-dashoffset:0" />
      <g
         transform="translate(3.4285729,-0.2857171)"
         id="g3820"
         style="fill:none;stroke:#000000;stroke-width:3;stroke-miterlimit:4;stroke-opacity:1;stroke-dasharray:none">
        <path
           d="m 361.93566,276.88609 a 215.71428,217.14285 0 0 1 184.87969,17.91978 L 435.71429,480.93362 z"
           transform="matrix(1.6078672,0,0,1.6038681,-324.85643,-290.42047)"
           id="path3822"
           style="fill:none;stroke:#000000;stroke-width:1.86815047;stroke-linecap:butt;stroke-linejoin:miter;stroke-miterlimit:4;stroke-opacity:1;stroke-dasharray:none" />
        <path
           d="m 546.81535,294.80587 a 215.71428,217.14285 0 0 1 98.20559,238.65936 L 435.71429,480.93362 z"
           transform="matrix(1.6078672,0,0,1.6038681,-324.85643,-290.42047)"
           id="path3824"
           style="fill:none;stroke:#000000;stroke-width:1.86815047;stroke-linecap:butt;stroke-linejoin:miter;stroke-miterlimit:4;stroke-opacity:1;stroke-dasharray:none" />
        <path
           d="M 645.02094,533.46524 A 215.71428,217.14285 0 0 1 435.7143,698.07648 l -10e-6,-217.14286 z"
           transform="matrix(1.6078672,0,0,1.6038681,-324.85643,-290.42047)"
           id="path3826"
           style="fill:none;stroke:#000000;stroke-width:1.86815047;stroke-linecap:butt;stroke-linejoin:miter;stroke-miterlimit:4;stroke-opacity:1;stroke-dasharray:none" />
        <path
           d="M 435.7143,698.07648 A 215.71428,217.14285 0 0 1 361.93566,276.88609 l 73.77863,204.04753 z"
           transform="matrix(1.6078672,0,0,1.6038681,-324.85643,-290.42047)"
           id="path3828"
           style="fill:none;stroke:#000000;stroke-width:1.86815047;stroke-linecap:butt;stroke-linejoin:miter;stroke-miterlimit:4;stroke-opacity:1;stroke-dasharray:none" />
      </g>
    </g>
  </g>
</svg>
