<?xml version="1.0"?>
<svg xmlns:rdf="http://www.w3.org/1999/02/22-rdf-syntax-ns#" xmlns="http://www.w3.org/2000/svg" xmlns:cc="http://web.resource.org/cc/" xmlns:dc="http://purl.org/dc/elements/1.1/" xmlns:svg="http://www.w3.org/2000/svg" id="svg1424" viewBox="0 0 53.063 595.35" version="1.0">
  <path id="rect1441" d="m42.352 292.62c6.574 6.77 2.803 20.49 3.75 27.25 2.215 5.58 3.02 4.64 3.706 8.4-3.78 12.97-5.841 38.67-4.247 47.97 2.164 12.62 2.658 24.27 4.009 35.51 0.605 12.23 1.124 26.34 1.505 38.2 0.762 23.72 2.058 63.87 1.212 86.9-0.13 3.52 0.369 2.01-4.851 9.44 0.089 4.58-0.006 4.5 0.288 13.61 0.472 1.86 0.277 3.09-3.89 3.32 0.401 5.49-0.645 23.86-1.49 26.96-4.883 4.56-9.784 4.46-14.628 4.62-4.845 0.15-10.752 0.2-14.91-3.63l-2.128-27.99c-2.148-0.3-5.0171 0.42-4.99-2.99l-0.0152-13.31c-5.7267-8.33-5.2209-7.31-5.1137-12.07l1.448-85.08 1.0736-37.2 3.4517-34.71c1.4206-16.97-3.8023-41.3-5.5013-48.63-0.27109-1.75 2.1138-5.57 4.7102-8.59 0.9894-6.55-3.1531-19.52 2.8453-27.98h33.765z" stroke="#000" fill="#f8c605" fill-opacity=".71503"/>
  <path id="rect1444" d="m47.705 0.50126l0.49 246.22-10.31 6.96-2.951 9.82-0.961 12.32 3.018 16.29-10.909 0.87-11.78-0.63 2.646-17.53-0.837-10.57-3.323-9.57-9.8125-7.96-0.4906-246.22 45.22 0.00126z" stroke="#000" fill="#e1dcd2"/>
  <path id="rect3193" d="m37.686 21.39l-0.006 233.29c-3.098 5.86-3.642 12.08-3.483 18.4l-17.189 0.03c0.223-5.71-1.483-11.75-4.065-17.94l0.504-233.78h24.239z" stroke="#000" fill="#8e8676"/>
  <path id="path3205" d="m47.976 7.463l-10.695 13.927" stroke="#000" stroke-width="1px" fill="none"/>
  <path id="path3207" d="m13.902 20.892l-11.191-11.689" stroke="#000" stroke-width="1px" fill="none"/>
  <path id="path3209" d="m45.232 298.2l-38.798-0.25" stroke="#000" stroke-width="1px" fill="none"/>
  <path id="path3211" d="m46.35 320.59l-40.29 0.12" stroke="#000" stroke-width="1px" fill="none"/>
  <path id="path3213" d="m49.581 414.97l-46.508 0.37" stroke="#000" stroke-width="1px" fill="none"/>
  <path id="path3215" d="m47.339 546.66l-41.286 0.37" stroke="#000" stroke-width="1px" fill="none"/>
  <path id="path3217" d="m43.981 563.32l-33.327-0.12" stroke="#000" stroke-width="1px" fill="none"/>
  <path id="path3219" d="m523.78 192.33a48.001 4.9741 0 1 1 -96 0 48.001 4.9741 0 1 1 96 0z" stroke="#000" fill="none" transform="matrix(-.000027783 1 -3.0854 -.000085722 620.05 11.458)"/>
  <metadata>
    <rdf:RDF>
      <cc:Work>
        <dc:format>image/svg+xml</dc:format>
        <dc:type rdf:resource="http://purl.org/dc/dcmitype/StillImage"/>
        <cc:license rdf:resource="http://creativecommons.org/licenses/publicdomain/"/>
        <dc:publisher>
          <cc:Agent rdf:about="http://openclipart.org/">
            <dc:title>Openclipart</dc:title>
          </cc:Agent>
        </dc:publisher>
        <dc:title>Chisel</dc:title>
        <dc:date>2006-12-30T14:34:40</dc:date>
        <dc:description>carpentry, chisel, clip art, clipart, image, media, png, public domain, svg, tool, work, </dc:description>
        <dc:source>http://openclipart.org/detail/2503/chisel-by-machovka</dc:source>
        <dc:creator>
          <cc:Agent>
            <dc:title>Machovka</dc:title>
          </cc:Agent>
        </dc:creator>
        <dc:subject>
          <rdf:Bag>
            <rdf:li>carpentry</rdf:li>
            <rdf:li>chisel</rdf:li>
            <rdf:li>clip art</rdf:li>
            <rdf:li>clipart</rdf:li>
            <rdf:li>image</rdf:li>
            <rdf:li>media</rdf:li>
            <rdf:li>png</rdf:li>
            <rdf:li>public domain</rdf:li>
            <rdf:li>svg</rdf:li>
            <rdf:li>tool</rdf:li>
            <rdf:li>work</rdf:li>
          </rdf:Bag>
        </dc:subject>
      </cc:Work>
      <cc:License rdf:about="http://creativecommons.org/licenses/publicdomain/">
        <cc:permits rdf:resource="http://creativecommons.org/ns#Reproduction"/>
        <cc:permits rdf:resource="http://creativecommons.org/ns#Distribution"/>
        <cc:permits rdf:resource="http://creativecommons.org/ns#DerivativeWorks"/>
      </cc:License>
    </rdf:RDF>
  </metadata>
</svg>
