<?xml version="1.0" encoding="UTF-8" standalone="no"?>
<!-- Created with Inkscape (http://www.inkscape.org/) -->
<svg xmlns:dc="http://purl.org/dc/elements/1.1/" xmlns:cc="http://creativecommons.org/ns#" xmlns:rdf="http://www.w3.org/1999/02/22-rdf-syntax-ns#" xmlns:svg="http://www.w3.org/2000/svg" xmlns="http://www.w3.org/2000/svg" xmlns:sodipodi="http://sodipodi.sourceforge.net/DTD/sodipodi-0.dtd" xmlns:inkscape="http://www.inkscape.org/namespaces/inkscape" id="svg2457" sodipodi:version="0.32" inkscape:version="0.46" width="260.51361" height="194.9218" version="1.0" sodipodi:docname="xeolhades_mouth.svg" inkscape:output_extension="org.inkscape.output.svg.inkscape" style="display:inline" inkscape:export-filename="/home/prism/Ãrea de Trabalho/mouth.png" inkscape:export-xdpi="114" inkscape:export-ydpi="114">
  <defs id="defs2460">
    <inkscape:perspective sodipodi:type="inkscape:persp3d" inkscape:vp_x="0 : 526.18109 : 1" inkscape:vp_y="0 : 1000 : 0" inkscape:vp_z="744.09448 : 526.18109 : 1" inkscape:persp3d-origin="372.04724 : 350.78739 : 1" id="perspective2464"/>
    <inkscape:perspective id="perspective2569" inkscape:persp3d-origin="372.04724 : 350.78739 : 1" inkscape:vp_z="744.09448 : 526.18109 : 1" inkscape:vp_y="0 : 1000 : 0" inkscape:vp_x="0 : 526.18109 : 1" sodipodi:type="inkscape:persp3d"/>
  </defs>
  <sodipodi:namedview inkscape:window-height="949" inkscape:window-width="1280" inkscape:pageshadow="2" inkscape:pageopacity="1" guidetolerance="10.0" gridtolerance="10.0" objecttolerance="10.0" borderopacity="1.0" bordercolor="#666666" pagecolor="#ffffff" id="base" showgrid="false" inkscape:zoom="0.74439563" inkscape:cx="424.10595" inkscape:cy="166.51272" inkscape:window-x="0" inkscape:window-y="25" inkscape:current-layer="layer4" showguides="true" inkscape:guide-bbox="true"/>
  <g inkscape:groupmode="layer" id="layer4" inkscape:label="teeth" style="opacity:0.98999999;display:inline" transform="translate(-13.059628,-59.39001)">
    <g id="g2525" transform="matrix(0.8480411,0,0,0.8480411,5.1163808,20.417183)">
      <path id="path3329" d="M 293.08124,134.99197 C 293.08124,167.80996 245.64577,194.44485 187.1985,194.44485 C 128.75121,194.44485 81.315743,167.80996 81.315743,134.99197 C 81.315743,102.17398 128.75121,75.539086 187.1985,75.539086 C 245.64577,75.539086 293.08124,102.17398 293.08124,134.99197 z" style="fill:#000000;fill-opacity:1;fill-rule:nonzero;stroke:none;stroke-width:0.60000002;stroke-linecap:round;stroke-linejoin:round;stroke-miterlimit:4;stroke-dashoffset:0;stroke-opacity:1"/>
      <g transform="matrix(0.2980386,0,0,0.2980386,21.296644,35.347558)" id="g3238">
        <path style="fill:#b3b3b3;fill-rule:evenodd;stroke:#000000;stroke-width:1px;stroke-linecap:butt;stroke-linejoin:miter;stroke-opacity:1" d="M 707.20593,345.73284 C 703.6954,338.41774 743.02729,310.56733 757.55101,319.6104 L 782.72355,335.28386 L 781.29869,395.60297 L 746.15212,421.25047 L 707.20593,407.00186 L 707.20593,345.73284 z" id="path3218" sodipodi:nodetypes="csccccc"/>
        <path style="fill:#808080;fill-rule:evenodd;stroke:none;stroke-width:1px;stroke-linecap:butt;stroke-linejoin:miter;stroke-opacity:1" d="M 772.4375,329.03125 C 772.19463,328.66696 774.8798,382.73917 758,390.5 C 739.74015,398.89532 729.4375,386.125 729.4375,386.125 L 720.71875,407.625 C 721.79362,409.7299 722.91684,411.54687 724.0625,413.15625 L 746.15625,421.25 L 781.3125,395.59375 L 782.71875,335.28125 L 772.875,329.15625 L 772.4375,329.03125 z" id="path3222"/>
        <path id="path3247" d="M 743.875,318.65625 C 733.4808,321.08572 721.25662,328.47164 713.8125,335.15625 L 721.46875,343.84375 C 726.9051,335.04644 734.07568,326.58095 743.875,318.65625 z" style="fill:#666666;fill-rule:evenodd;stroke:none;stroke-width:1px;stroke-linecap:butt;stroke-linejoin:miter;stroke-opacity:1"/>
      </g>
      <path sodipodi:nodetypes="csccc" id="path3406" d="M 218.44256,146.31595 C 219.00855,145.42109 227.97608,127.93712 239.20961,137.64825 C 243.15867,141.06212 241.46875,151.0935 240.94973,156.93253 L 217.59324,165.14269 L 218.44256,146.31595 z" style="fill:#cccccc;fill-opacity:1;fill-rule:evenodd;stroke:#000000;stroke-width:0.44705781;stroke-linecap:butt;stroke-linejoin:miter;stroke-miterlimit:4;stroke-dasharray:none;stroke-opacity:1;display:inline"/>
      <path sodipodi:nodetypes="cccccsc" id="path3404" d="M 220.02695,138.78986 C 224.13071,140.91479 222.81886,150.02301 222.02883,158.45836 L 194.60304,158.30822 L 194.75318,147.04763 C 194.16163,146.78846 194.92806,141.04483 199.20737,140.94188 C 199.20737,140.94188 204.8222,140.54268 208.01565,139.44047 C 210.45486,138.59859 220.02695,138.78986 220.02695,138.78986 z" style="fill:#cccccc;fill-rule:evenodd;stroke:#000000;stroke-width:0.44705781;stroke-linecap:butt;stroke-linejoin:miter;stroke-miterlimit:4;stroke-dasharray:none;stroke-opacity:1;display:inline"/>
      <path sodipodi:nodetypes="ccc" id="path3449" d="M 45.887642,152.96901 C 102.15831,261.50257 217.99375,341.79187 288.79515,198.83266 C 172.62315,282.33983 118.96,190.41892 45.887642,152.96901 z" style="fill:#ececec;fill-opacity:1;fill-rule:evenodd;stroke:none;stroke-width:1px;stroke-linecap:butt;stroke-linejoin:miter;stroke-opacity:1;display:inline"/>
      <path sodipodi:nodetypes="ccscc" id="path3400" d="M 130.86024,145.56339 C 134.85152,143.28757 139.16341,141.45567 144.87342,141.55962 C 150.01043,142.15441 157.4704,142.17559 160.28792,143.36131 C 165.12954,145.39888 164.20246,150.81333 164.24164,150.86838 L 130.86024,145.56339 z" style="fill:#b3b3b3;fill-opacity:1;fill-rule:evenodd;stroke:#000000;stroke-width:0.44705781;stroke-linecap:butt;stroke-linejoin:miter;stroke-miterlimit:4;stroke-dasharray:none;stroke-opacity:1;display:inline"/>
      <path id="path3229" d="M 194.75508,147.17721 L 194.60606,158.30709 L 199.49576,158.33503 C 199.84465,157.4906 200.02023,156.42923 199.94282,155.09386 C 199.64076,149.88352 197.07605,147.89788 194.75508,147.17721 z" style="fill:#999999;fill-rule:evenodd;stroke:none;stroke-width:1.5;stroke-linecap:butt;stroke-linejoin:miter;stroke-miterlimit:4;stroke-dasharray:none;stroke-opacity:1;display:inline"/>
      <path sodipodi:nodetypes="csscc" id="path3402" d="M 161.78933,153.41219 C 163.43651,149.30389 161.61605,142.76023 167.84503,142.00146 C 177.70321,140.8006 193.1409,142.28722 194.26988,143.15254 C 195.08359,143.77622 195.71876,152.66209 194.47007,157.01558 C 182.48443,158.69352 172.41501,155.3196 161.78933,153.41219 z" style="fill:#cccccc;fill-rule:evenodd;stroke:#000000;stroke-width:0.44705781;stroke-linecap:butt;stroke-linejoin:miter;stroke-miterlimit:4;stroke-dasharray:none;stroke-opacity:1;display:inline"/>
      <path sodipodi:nodetypes="ccscc" id="path3438" d="M 50.767755,156.32203 C 86.101823,182.8093 114.86816,211.35099 166.87696,229.99131 C 197.55782,240.46594 233.04662,236.28523 248.95416,223.18492 L 255.76055,217.57964 L 50.767755,156.32203 z" style="fill:#b3b3b3;fill-opacity:1;fill-rule:evenodd;stroke:none;stroke-width:1px;stroke-linecap:butt;stroke-linejoin:miter;stroke-opacity:1;display:inline"/>
      <path sodipodi:nodetypes="cccc" id="path3548" d="M 289.14856,136.31364 C 304.37567,125.78387 309.61021,117.75225 307.76607,111.49029 L 283.54328,117.89632 L 289.14856,136.31364 z" style="fill:#b3b3b3;fill-opacity:1;fill-rule:evenodd;stroke:none;stroke-width:1px;stroke-linecap:butt;stroke-linejoin:miter;stroke-opacity:1"/>
      <g transform="matrix(0.2980386,0,0,0.2980386,21.296644,35.347558)" style="stroke:none;stroke-opacity:1" id="g3587">
        <path style="fill:#f2f2f2;fill-rule:evenodd;stroke:#000000;stroke-width:2.79999995;stroke-linecap:butt;stroke-linejoin:miter;stroke-miterlimit:4;stroke-dasharray:none;stroke-opacity:1;display:inline" d="M 303.74775,287.6854 L 358.99391,306.82844 C 379.1206,313.80243 388.59883,302.43762 394.25742,295.07394 C 409.63639,317.90712 436.42126,287.75815 438.39195,282.59508 C 440.36264,277.43201 447.70176,257.00109 447.65644,257.12369 C 383.8666,240.41645 342.60122,262.00081 303.74775,287.6854 z" id="path3386" sodipodi:nodetypes="csczcc"/>
        <path style="fill:#cccccc;fill-rule:evenodd;stroke:none;stroke-width:1px;stroke-linecap:butt;stroke-linejoin:miter;stroke-opacity:1;display:inline" d="M 403.71875,251.25 C 363.38027,251.4762 332.8901,268.42406 303.75,287.6875 L 359,306.84375 C 379.1267,313.81775 388.59141,302.42618 394.25,295.0625 C 395.93208,297.55988 397.74867,299.44949 399.65625,300.78125 C 403.39429,293.64225 408.29057,285.93965 414.625,282.09375 C 422.35115,277.40287 434.64176,271.96683 443.65625,268.1875 C 445.77912,262.31999 447.67933,257.06256 447.65625,257.125 C 431.70879,252.94819 417.16491,251.1746 403.71875,251.25 z" id="path3575"/>
        <path style="fill:#999999;fill-rule:evenodd;stroke:none;stroke-width:1px;stroke-linecap:butt;stroke-linejoin:miter;stroke-opacity:1;display:inline" d="M 403.71875,251.25 C 363.38027,251.4762 332.8901,268.42406 303.75,287.6875 L 351.71875,304.3125 L 412.75,261.1875 L 412.125,251.46875 C 409.27629,251.3243 406.47273,251.23456 403.71875,251.25 z" id="path3582"/>
      </g>
      <g transform="matrix(0.2980386,0,0,0.2980386,21.296644,35.347558)" id="g3624">
        <path style="fill:#f2f2f2;fill-rule:evenodd;stroke:#000000;stroke-width:2.20000005;stroke-linecap:butt;stroke-linejoin:miter;stroke-miterlimit:4;stroke-dasharray:none;stroke-opacity:1;display:inline" d="M 735.09572,288.02472 C 745.1189,297.86269 754.67447,296.94555 764.0679,292.2993 C 767.63379,295.90446 773.4999,296.74935 780.21632,296.57388 C 791.70975,284.96473 796.03083,262.42629 794.22745,230.55533 L 769.05491,211.31971 L 743.64489,214.16943 L 735.09572,288.02472 z" id="path3396" sodipodi:nodetypes="ccccccc"/>
        <path style="fill:#999999;fill-opacity:1;fill-rule:evenodd;stroke:none;stroke-width:1px;stroke-linecap:butt;stroke-linejoin:miter;stroke-opacity:1;display:inline" d="M 769.0625,211.3125 L 743.65625,214.15625 L 741.78125,230.40625 C 758.71694,237.76316 775.43647,246.69532 788.3125,284.09375 C 793.69166,271.42804 795.51062,253.39359 794.21875,230.5625 L 769.0625,211.3125 z" id="path3612"/>
        <path style="fill:#666666;fill-rule:evenodd;stroke:none;stroke-width:1px;stroke-linecap:butt;stroke-linejoin:miter;stroke-opacity:1;display:inline" d="M 779.40625,219.21875 C 784.54683,238.63613 789.55171,258.02149 790.96875,276.375 C 794.26935,264.4666 795.26759,249.09863 794.21875,230.5625 L 779.40625,219.21875 z" id="path3619"/>
      </g>
      <path sodipodi:nodetypes="cc" id="path3196" d="M 249.1109,122.20037 C 253.71219,114.58251 254.45145,106.7614 254.01551,98.878433" style="fill:none;fill-rule:evenodd;stroke:#000000;stroke-width:0.56627321;stroke-linecap:butt;stroke-linejoin:miter;stroke-miterlimit:4;stroke-dasharray:none;stroke-opacity:1"/>
      <g transform="matrix(0.2980386,0,0,0.2980386,21.296644,35.347558)" id="g3192">
        <path style="fill:#ececec;fill-opacity:1;fill-rule:evenodd;stroke:#000000;stroke-width:2.20000005;stroke-linecap:butt;stroke-linejoin:miter;stroke-miterlimit:4;stroke-dasharray:none;stroke-opacity:1;display:inline" d="M 624.81358,211.44905 L 608.35728,274.92337 C 630.84256,294.72004 650.89556,316.94864 676.86924,304.47754 C 691.59506,300.33862 704.38557,294.90948 734.63422,301.11911 C 742.70246,300.74929 749.61112,288.16017 752.43389,272.90831 C 756.52111,250.82445 756.7354,227.72443 753.44142,208.76231 L 624.81358,211.44905 z" id="path3394" sodipodi:nodetypes="ccccscc"/>
        <path style="fill:#999999;fill-opacity:1;fill-rule:evenodd;stroke:none;stroke-width:1px;stroke-linecap:butt;stroke-linejoin:miter;stroke-opacity:1;display:inline" d="M 753.4375,208.75 L 624.8125,211.4375 L 611.59375,262.4375 C 614.86319,261.37579 617.09194,248.55847 673.49403,233.15602 C 743.0624,214.15807 750.79522,241.02322 755.4375,247.25 C 756.15068,233.65576 755.46348,220.41276 753.4375,208.75 z" id="path3567" sodipodi:nodetypes="cccscc"/>
      </g>
      <path sodipodi:nodetypes="csscsscsssccscccsccscsscccccccccccc" id="path3388" d="M 265.81069,47.328333 C 265.35956,47.329086 264.90786,47.327418 264.45089,47.33765 C 254.05682,47.570399 248.61544,51.488349 244.43574,55.347434 C 239.33408,60.057742 231.82692,58.540658 222.00834,52.748909 C 189.04269,46.190289 154.69397,58.935012 124.52179,79.972868 C 98.152094,98.359409 75.035578,118.04415 55.255768,128.21786 C 44.700425,133.64698 36.262053,135.73504 36.237181,140.63303 C 30.208851,147.44511 33.072573,150.70464 33.312681,150.96193 C 38.975819,157.03023 88.774159,178.16794 114.84485,196.82261 C 137.7457,213.20912 166.78361,226.20593 185.34028,227.11078 C 203.61451,228.00186 250.10554,234.26135 279.05478,212.1064 C 300.67128,196.94588 321.63209,149.17903 289.52338,125.19091 C 311.50045,118.34616 319.60695,99.93701 315.29439,82.776293 C 311.04922,65.883715 294.23189,47.28093 265.81069,47.328333 z M 249.22298,100.50027 C 253.49485,104.15489 257.99733,104.76387 262.53227,104.99879 C 265.24084,111.14509 267.29557,116.44562 267.245,121.71689 C 267.18331,128.14758 262.50975,128.5047 260.08276,128.90707 C 269.333,132.06339 259.06024,126.18832 252.88327,137.07519 C 253.49391,147.01468 252.16285,154.86327 245.59064,156.53152 C 240.78748,157.75073 230.89709,158.10431 223.70343,157.15554 C 215.13432,156.23607 206.74544,154.74846 196.67506,156.14966 C 186.48544,157.56746 176.12372,158.2315 164.14229,150.54281 C 155.50807,145.00208 142.7633,146.71191 133.55609,146.27714 C 128.21693,144.06366 122.8664,144.51354 119.32474,144.29332 C 115.59848,142.56424 111.88773,139.9743 104.46939,138.77029 C 100.17467,136.7494 95.754277,134.79244 90.713041,133.14481 C 90.523125,132.69861 90.051572,132.2163 92.175293,132.02717 C 97.620879,131.76513 101.0271,128.09093 100.98606,128.12472 C 113.96225,125.51187 124.00536,119.63343 134.72029,114.50809 C 144.62064,114.9805 154.92784,115.21285 182.06185,105.50173 C 188.25203,106.98565 193.67043,104.86654 199.078,102.69831 C 203.67843,104.63996 210.10423,103.53193 217.0907,101.49684 C 221.93171,102.52905 226.72659,103.10645 231.30341,101.49684 C 242.9048,103.24711 249.2232,100.4562 249.22298,100.50027 z" style="fill:#cb0423;fill-opacity:1;fill-rule:evenodd;stroke:none;stroke-width:0.5;stroke-linecap:butt;stroke-linejoin:miter;stroke-miterlimit:4;stroke-dasharray:none;stroke-opacity:1;display:inline"/>
      <path sodipodi:nodetypes="cccccc" id="path3398" d="M 103.42954,138.91973 C 102.50408,137.37099 110.56378,132.56589 116.24022,138.35351 C 118.78817,139.55199 119.54139,139.52249 124.33695,142.25881 C 127.165,142.65818 128.13429,144.24039 129.59189,145.51186 L 119.93281,148.81497 L 103.42954,138.91973 z" style="fill:#b3b3b3;fill-opacity:1;fill-rule:evenodd;stroke:#000000;stroke-width:0.44705781;stroke-linecap:butt;stroke-linejoin:miter;stroke-miterlimit:4;stroke-dasharray:none;stroke-opacity:1;display:inline"/>
      <path sodipodi:nodetypes="cccc" id="path3451" d="M 43.339658,140.2291 C 30.792205,141.40316 18.896535,141.88265 9.3665827,138.53045 C 19.888883,120.36956 55.22822,107.72355 106.47296,98.612085 L 43.339658,140.2291 z" style="fill:#e6e6e6;fill-opacity:1;fill-rule:evenodd;stroke:none;stroke-width:1px;stroke-linecap:butt;stroke-linejoin:miter;stroke-opacity:1;display:inline"/>
      <path id="path3444" d="M 64.485764,122.97415 C 61.333975,124.91605 58.25458,126.67539 55.255881,128.21776 C 44.700538,133.64688 36.262166,135.73494 36.237294,140.63293 C 34.936499,142.10284 34.050256,143.40938 33.46181,144.554 L 36.973079,146.31429 C 47.449723,138.05291 52.906815,142.33635 59.903418,142.77508 C 64.32621,138.13144 67.574221,132.95656 80.710237,132.30648 C 76.680156,127.31973 71.133497,124.39136 64.485764,122.97415 z" style="fill:#591311;fill-opacity:1;fill-rule:evenodd;stroke:none;stroke-width:1.70000005;stroke-linecap:butt;stroke-linejoin:miter;stroke-miterlimit:4;stroke-dasharray:none;stroke-opacity:1;display:inline"/>
      <g transform="matrix(0.2980386,0,0,0.2980386,21.296644,35.347558)" style="stroke:none" id="g3561">
        <path style="fill:#e6e6e6;fill-rule:evenodd;stroke:#000000;stroke-width:2.70000005;stroke-linecap:butt;stroke-linejoin:miter;stroke-miterlimit:4;stroke-dasharray:none;stroke-opacity:1;display:inline" d="M 419.25157,242.66665 C 447.50116,273.91595 477.66539,322.75307 504.74322,315.33455 C 543.32434,322.24616 547.70119,314.52714 559.83784,310.58502 C 617.40827,312.09665 609.77464,296.53103 617.30723,284.93752 C 618.85196,266.05924 619.07893,245.38826 616.83227,222.7186 L 495.7191,208.94494 L 419.25157,242.66665 z" id="path3392" sodipodi:nodetypes="ccccccc"/>
        <path style="fill:#999999;fill-opacity:1;fill-rule:evenodd;stroke:none;stroke-width:1px;stroke-linecap:butt;stroke-linejoin:miter;stroke-opacity:1;display:inline" d="M 495.71875,208.9375 L 419.25,242.65625 C 430.03721,254.5889 441.08914,269.08109 452.15625,282.03125 C 461.26951,263.75986 473.31016,239.34525 520.0625,246.46875 C 548.87692,250.85911 589.33213,241.80971 616.96875,239.8125 L 618.09375,240.125 C 617.82396,234.45294 617.43273,228.66183 616.84375,222.71875 L 495.71875,208.9375 z" id="path3556" sodipodi:nodetypes="cccscccc"/>
      </g>
      <path sodipodi:nodetypes="ccc" id="path3380" d="M 92.535827,136.18008 C 96.693806,134.17729 100.78178,132.03823 104.54713,126.37085 C 97.619364,126.72746 82.477061,127.68427 92.535827,136.18008 z" style="fill:#999999;fill-rule:evenodd;stroke:#000000;stroke-width:0.29803854px;stroke-linecap:round;stroke-linejoin:round;stroke-opacity:1;display:inline"/>
      <path sodipodi:nodetypes="cccscscscccccsccccsccscsscccccccccccc" id="path3413" d="M 192.99626,68.07917 C 179.86749,68.218171 163.22508,70.511275 142.45078,77.048269 L 108.05527,91.847744 C 88.423494,106.34894 70.804522,120.22035 55.255881,128.21776 C 44.700538,133.64688 36.262166,135.73494 36.237294,140.63293 C 30.208964,147.44501 33.072686,150.70454 33.312794,150.96183 C 37.214894,155.1431 62.07373,166.48064 85.683754,179.22892 C 117.03174,181.41201 145.06967,188.22008 170.08455,201.56319 L 220.68591,228.55429 C 240.16957,228.15659 262.48442,224.78774 279.05489,212.1063 C 300.67139,196.94578 321.63221,149.17893 289.5235,125.19081 C 304.64517,120.48117 313.20618,110.30017 315.66705,98.814398 C 302.90951,79.430703 293.32504,70.617601 285.78869,68.637992 C 272.83007,65.947829 263.1983,75.425311 256.96278,76.647781 C 250.46674,77.921318 244.50691,80.083228 234.94518,76.247288 C 232.05744,76.526692 219.87898,67.794547 192.99626,68.07917 z M 249.2231,100.50018 C 253.49497,104.15479 257.99745,104.76377 262.53238,104.9987 C 265.24095,111.14499 267.29568,116.44552 267.24511,121.71679 C 267.18342,128.14748 262.50986,128.5046 260.08288,128.90697 C 260.12896,135.67502 259.37168,131.87322 252.88338,137.0751 C 253.49403,147.01458 252.16296,154.86318 245.59075,156.53143 C 240.7876,157.75063 230.8972,158.10422 223.70354,157.15544 C 215.13444,156.23597 206.74555,154.74836 196.67517,156.14956 C 186.48555,157.56736 176.12383,158.23141 164.1424,150.54271 C 155.50818,145.00198 142.76341,146.71181 133.5562,146.27704 C 128.21704,144.06356 122.86651,144.51345 119.32486,144.29322 C 115.59859,142.56414 111.88784,139.9742 104.4695,138.77019 C 100.17479,136.7493 95.75439,134.79234 90.713154,133.14471 C 90.523238,132.69851 90.051685,132.2162 92.175407,132.02707 C 97.620992,131.76503 101.02721,128.09084 100.98617,128.12462 C 113.96236,125.51178 124.00547,119.63333 134.72041,114.50799 C 144.62075,114.9804 154.92795,115.21275 182.06197,105.50163 C 188.25214,106.98556 193.67055,104.86644 199.07811,102.69821 C 203.67854,104.63986 210.10435,103.53183 217.09082,101.49674 C 221.93183,102.52895 226.72671,103.10636 231.30353,101.49674 C 242.90492,103.24701 249.22332,100.4561 249.2231,100.50018 z" style="fill:#a50917;fill-opacity:1;fill-rule:evenodd;stroke:none;stroke-width:0.5;stroke-linecap:butt;stroke-linejoin:miter;stroke-miterlimit:4;stroke-dasharray:none;stroke-opacity:1;display:inline"/>
      <path sodipodi:nodetypes="cscscssccccscsccc" id="path3420" d="M 288.54554,132.28785 C 285.09232,132.26718 283.20093,136.0988 278.1794,141.10793 C 265.63475,153.62162 255.42958,155.28396 249.3628,154.4079 C 248.35934,155.41431 247.1205,156.14312 245.59075,156.53143 C 240.7876,157.75063 230.8972,158.10422 223.70354,157.15544 C 215.13444,156.23597 206.74555,154.74836 196.67517,156.14956 C 186.48555,157.56736 176.12383,158.23141 164.1424,150.54271 C 155.50818,145.00198 142.76341,146.71181 133.5562,146.27704 C 128.21704,144.06356 122.86651,144.51345 119.32486,144.29322 C 115.59859,142.56414 111.88784,139.9742 104.4695,138.77019 C 101.84922,137.53721 99.183555,136.33269 96.357259,135.20304 C 84.061731,139.63686 78.625315,152.16646 87.602378,156.72701 C 114.56106,170.42265 141.5239,183.88754 168.48259,192.35193 C 238.57725,222.24151 250.90234,210.80989 267.37551,202.76465 C 280.52533,196.3425 292.65752,186.53199 303.95041,173.92011 C 306.5232,164.22241 306.92373,154.05723 303.88523,144.80547 C 298.77116,137.90087 293.65965,132.31846 288.54554,132.28785 z" style="fill:#cb0423;fill-opacity:1;fill-rule:evenodd;stroke:none;stroke-width:0.5;stroke-linecap:butt;stroke-linejoin:miter;stroke-miterlimit:4;stroke-dasharray:none;stroke-opacity:1;display:inline"/>
      <path id="path3436" d="M 168.34288,78.873755 C 156.28648,78.862352 147.88933,85.682091 145.96205,85.449229 C 132.82412,92.29103 123.42778,100.74492 113.82977,105.97663 C 106.12165,110.1782 95.810775,109.54503 85.413658,108.64036 C 74.630018,116.51911 64.568851,123.42765 55.255881,128.21776 C 44.762571,133.61497 36.369427,135.71252 36.246611,140.54911 C 52.874032,136.61425 69.826499,131.22149 84.389147,132.30648 C 86.460915,132.46083 88.508564,132.60061 90.536196,132.73491 C 90.471954,132.43144 90.702076,132.15828 92.175407,132.02707 C 97.620992,131.76503 101.02721,128.09084 100.98617,128.12462 C 113.96236,125.51178 124.00547,119.63333 134.72041,114.50799 C 144.62075,114.9804 154.92795,115.21275 182.06197,105.50163 C 188.25214,106.98556 193.67055,104.86644 199.07811,102.69821 C 203.67854,104.63986 210.10435,103.53183 217.09082,101.49674 C 221.93183,102.52895 226.72671,103.10636 231.30353,101.49674 C 242.90492,103.24701 249.22332,100.4561 249.2231,100.50018 C 253.49497,104.15479 257.99745,104.76377 262.53238,104.9987 C 265.24095,111.14499 267.29568,116.44552 267.24511,121.71679 C 267.23604,122.66276 267.12459,123.47302 266.93776,124.17562 C 274.23313,123.52711 280.75213,121.78354 290.6784,124.81826 C 292.53306,124.19251 294.28201,123.48119 295.93133,122.69473 C 299.32125,116.62223 298.21493,102.30665 296.72298,87.284028 C 289.26349,98.737538 276.97408,103.39142 276.62401,103.42468 C 270.81325,103.97681 256.33333,104.19204 262.46719,91.959511 C 261.73315,87.475272 257.59773,95.843193 250.43388,98.749202 C 244.09684,98.65115 243.31462,95.440019 239.95596,96.625678 C 221.66444,103.08283 233.55215,91.042985 231.89029,87.433049 C 229.16449,84.513994 224.65667,82.620636 212.21043,85.309525 C 188.22933,96.434079 188.71523,84.470296 180.36688,81.20218 C 176.06969,79.519969 172.03362,78.877243 168.34288,78.873755 z" style="fill:#860f13;fill-opacity:1;fill-rule:evenodd;stroke:none;stroke-width:1.10000002;stroke-linecap:butt;stroke-linejoin:miter;stroke-miterlimit:4;stroke-dasharray:none;stroke-opacity:1;display:inline"/>
      <path sodipodi:nodetypes="csscc" id="path3453" d="M 252.35735,147.11337 C 258.96351,145.89898 266.90153,150.72241 273.97769,137.90471 C 280.6573,125.80528 292.73188,127.52184 292.69528,127.49492 L 289.2921,124.99257 C 271.03438,116.72899 261.45297,134.11503 252.35735,147.11337 z" style="fill:#af0f13;fill-opacity:1;fill-rule:evenodd;stroke:none;stroke-width:1px;stroke-linecap:butt;stroke-linejoin:miter;stroke-opacity:1;display:inline"/>
      <path sodipodi:nodetypes="csssccssssscssssssscscsccsccccssssssccsssssccscsssssccccccccccccccccscccsscccscscsccssssccssccssssscccssccsscsccscssscsssssssssscssscccccccccccsscsscsssssccssccccssc" id="path3552" d="M 265.80933,47.297041 C 265.35831,47.297794 264.90702,47.296111 264.44953,47.306353 C 254.04822,47.539264 248.58988,51.456167 244.41575,55.325455 C 241.87758,57.678264 239.89893,59.933848 234.89951,58.66189 C 231.24532,57.73219 226.93301,55.621692 222.02561,52.726929 L 222.0163,52.717617 C 189.0395,46.156778 154.67806,58.910194 124.50181,79.950888 C 98.130621,98.338457 75.019403,118.02501 55.245098,128.19588 C 49.968919,130.90967 45.221431,132.78016 41.786796,134.59439 C 40.069476,135.50151 38.679916,136.39679 37.716705,137.36988 C 36.755974,138.34047 36.216849,139.39139 36.207886,140.62036 C 36.207862,140.62353 36.207901,140.62651 36.207886,140.62968 C 33.203117,144.03054 32.406205,146.55279 32.39858,148.2576 C 32.39094,149.96528 33.170133,150.85519 33.292693,150.98651 C 34.005077,151.74986 35.398016,152.74325 37.353472,153.93896 C 39.308922,155.13467 41.821428,156.52948 44.757868,158.09287 C 50.630747,161.21966 58.204186,165.00747 66.412229,169.19481 C 82.828311,177.56949 101.79249,187.52199 114.82487,196.8472 C 137.72934,213.2363 166.7699,226.23923 185.33892,227.14468 C 203.60883,228.03554 250.10843,234.29695 279.07205,212.13098 C 289.88864,204.54488 300.53076,188.81318 304.46121,171.97029 C 308.38855,155.14071 305.60871,137.19838 289.57791,125.19687 C 311.53043,118.33609 319.63371,99.934309 315.32099,82.772943 C 311.07254,65.867329 294.24356,47.249614 265.80933,47.297041 z M 266.71018,45.96092 C 295.10153,46.401205 310.98043,65.913512 315.2651,82.782256 C 319.66828,100.11752 313.2787,121.92161 289.51271,125.15961 L 289.45683,125.17824 C 309.04943,131.83311 307.29636,155.97764 304.40533,171.95167 C 292.94059,229.86535 239.18075,234.85054 189.58556,229.59208 C 171.12632,227.60071 137.75933,213.18454 114.86212,196.80063 C 101.82381,187.47117 83.557376,175.62137 67.140827,167.24645 C 58.932558,163.05899 50.657587,161.16319 44.785809,158.03699 C 41.849916,156.47389 39.34442,155.07771 37.390726,153.88308 C 35.437031,152.68844 34.033353,151.69367 33.329952,150.93995 C 33.212405,150.81399 32.446907,149.94703 32.454463,148.2576 C 32.462019,146.56817 33.252719,144.05082 36.263765,140.6483 L 36.263765,140.62968 C 36.269939,139.41372 36.798123,138.37278 37.753959,137.40713 C 38.709796,136.44149 40.099936,135.55606 41.814738,134.65028 C 45.244341,132.8387 52.596326,131.75853 57.875486,129.0432 C 77.660805,118.86666 98.170846,98.382962 124.53906,79.99746 C 154.7044,58.96437 192.43456,42.15484 221.99767,52.773501 C 222.00056,52.774538 222.00396,52.7729 222.00698,52.773501 C 228.87656,56.800232 237.33245,60.829964 244.45301,55.372021 C 250.39622,48.7339 257.86277,45.823715 266.71018,45.96092 z M 249.21231,100.46898 C 249.20724,100.47008 249.20024,100.4762 249.19368,100.47829 C 249.18057,100.48249 249.16244,100.48809 249.1378,100.49692 C 249.08853,100.51458 249.02111,100.53715 248.92359,100.57143 C 248.72853,100.63999 248.43433,100.73696 248.0481,100.85085 C 247.27563,101.07861 246.12252,101.35446 244.61134,101.60525 C 241.92581,102.05094 245.16876,101.69543 231.31137,101.46555 L 231.30206,101.46555 L 231.29274,101.46555 C 227.78846,104.13654 222.30956,102.86899 217.09866,101.46555 L 217.08935,101.46555 L 217.08003,101.46555 C 210.09549,103.50007 203.67348,104.60322 199.08595,102.66701 L 199.07664,102.66701 L 199.06733,102.66701 C 193.98706,104.96604 191.28551,108.16619 182.06981,105.47044 L 182.0605,105.47044 L 182.05118,105.47044 C 154.91957,115.1807 144.61876,114.94918 134.71894,114.47679 L 134.70962,114.47679 C 123.99322,119.60284 113.95532,125.4817 100.9847,128.09343 L 100.9847,128.10274 C 100.98198,128.09956 100.9754,128.09342 100.97539,128.09343 C 100.97533,128.09345 100.96699,128.10199 100.96608,128.10274 L 100.9847,128.12137 L 100.99401,128.14931 C 100.99704,128.1487 101.0003,128.14992 101.00333,128.14931 C 101.00636,128.1487 101.00962,128.14992 101.01264,128.14931 C 101.01307,128.1488 101.0121,128.14071 101.01264,128.14 C 114.57794,126.52715 124.54865,120.54609 134.71894,114.54199 C 144.62114,115.02291 155.65538,117.77093 182.0605,105.52632 C 182.06356,105.52705 182.06676,105.52559 182.06981,105.52632 C 188.25934,107.00335 193.67693,104.88793 199.07664,102.7229 C 199.07931,102.72402 199.08307,102.72261 199.08595,102.7229 C 206.27275,103.4342 221.44387,98.166226 217.08003,101.52143 C 217.08605,101.52271 217.09264,101.52015 217.09866,101.52143 C 221.93224,102.55095 226.72526,103.12822 231.30206,101.52143 L 231.30206,101.53074 C 237.10585,102.40634 241.58813,102.14432 244.62065,101.67045 C 246.13692,101.43352 247.29201,101.14448 248.06673,100.91604 C 248.45409,100.80182 248.74646,100.69611 248.94222,100.62732 C 249.04009,100.59291 249.10751,100.57033 249.15643,100.5528 C 249.18089,100.54404 249.20082,100.53785 249.21231,100.53418 C 253.48189,104.18161 257.98562,104.79717 262.51228,105.0327 C 265.21623,111.16988 267.26614,116.45584 267.2157,121.71354 C 267.18493,124.92167 266.00524,126.60534 264.53335,127.54392 C 263.06147,128.4825 261.29654,128.67432 260.08141,128.87578 L 260.07209,128.87578 C 259.95963,128.92753 259.88062,128.99418 259.82993,129.06206 C 259.77925,129.12993 259.75328,129.20481 259.75543,129.28559 C 259.75972,129.44714 259.85454,129.61985 259.96964,129.82578 C 260.19984,130.23762 260.52976,130.76327 260.52847,131.40911 C 260.52717,132.05494 260.19215,132.83013 259.06621,133.76548 C 257.94027,134.70081 256.02756,135.78645 252.8726,137.0439 L 252.85397,137.05322 L 252.85397,137.08115 C 253.15918,142.0491 252.97998,146.48988 251.90397,149.89681 C 250.82796,153.30375 248.85573,155.66873 245.57997,156.50023 C 240.78494,157.71737 230.90058,158.07243 223.71139,157.12424 L 223.70207,157.12424 C 215.1343,156.20492 206.74917,154.71645 196.6737,156.11837 C 186.48555,157.53596 176.13376,158.20489 164.15956,150.52083 C 155.51448,144.97313 142.76563,146.6789 133.56404,146.24584 C 133.56128,146.24469 133.55749,146.24699 133.55473,146.24584 C 128.21821,144.03622 122.87761,144.47962 119.34201,144.26202 C 115.62079,142.53529 111.90376,139.94451 104.48665,138.73899 C 104.48413,138.7378 104.47986,138.74018 104.47734,138.73899 C 100.187,136.7203 95.766782,134.76016 90.730313,133.11352 C 90.682998,133.00618 90.624916,132.8977 90.590608,132.79685 C 90.55424,132.68994 90.543845,132.59869 90.599921,132.50812 C 90.655996,132.41756 90.78962,132.32505 91.037663,132.24734 C 91.28571,132.16963 91.644217,132.10825 92.173936,132.06107 C 94.903114,131.92974 97.126053,130.94243 98.656276,129.99342 C 99.42139,129.51892 100.01692,129.0528 100.41657,128.70813 C 100.61639,128.5358 100.76334,128.38719 100.86362,128.28902 C 100.91376,128.23993 100.9511,128.20265 100.97539,128.17725 C 100.98551,128.16667 100.98839,128.15545 100.99401,128.14931 C 100.99407,128.14929 100.95681,128.11196 100.95676,128.11206 C 100.95165,128.1177 100.9407,128.12758 100.92882,128.14 C 100.90506,128.16484 100.87608,128.20311 100.82637,128.25176 C 100.72696,128.34908 100.56882,128.4901 100.37,128.66156 C 99.972351,129.0045 98.555538,128.26752 98.194356,129.08822 C 97.621435,130.39004 96.878163,132.61059 92.173936,131.99587 C 91.641796,132.04326 91.273938,132.1116 91.019038,132.19146 C 90.764138,132.27132 90.054898,132.07833 89.987134,132.18776 C 89.919375,132.29719 90.495626,132.70055 90.534725,132.81548 C 90.573824,132.9304 90.637249,133.05084 90.683746,133.16008 L 90.693058,133.1694 L 90.702371,133.1694 C 114.37933,143.74789 101.06424,137.18954 104.45872,138.79488 L 104.46803,138.80419 C 111.74241,140.70158 115.5473,142.77247 119.31407,144.3179 L 119.31407,144.32721 L 119.32339,144.32721 C 123.77821,145.91092 128.21408,144.09149 133.54542,146.30172 L 133.54542,146.31103 L 133.55473,146.31103 C 142.76692,146.74605 154.79387,146.02625 163.41453,151.55828 C 175.4032,159.25162 186.49192,157.60157 196.68302,156.18356 C 206.74831,154.78307 216.40561,157.40226 224.97606,158.32188 C 232.17418,159.27124 240.78731,157.99612 245.59859,157.40544 C 248.97423,156.991 250.87994,153.33473 251.95985,149.91544 C 253.03838,146.50053 253.21365,142.05429 252.90985,137.09047 C 256.05431,135.83562 257.97223,134.75179 259.10347,133.81204 C 260.23749,132.86999 260.59232,132.07551 260.59366,131.40911 C 260.59499,130.7427 260.24477,130.20675 260.01621,129.79784 C 259.90193,129.59338 259.82433,129.42535 259.82062,129.28559 C 259.81877,129.2157 259.83375,129.14724 259.87651,129.09 C 259.91925,129.03275 259.98424,128.98066 260.09072,128.93166 L 260.09072,128.94098 C 261.30257,128.74006 263.08355,128.54805 264.57061,127.5998 C 266.05767,126.65155 267.24067,124.9361 267.27158,121.71354 C 267.32223,116.43433 265.26773,111.13311 262.55885,104.98613 L 262.54953,104.9675 L 262.53091,104.9675 C 258.87776,104.43928 256.84313,103.0147 249.24025,100.47829 C 249.237,100.47327 249.23102,100.46901 249.23094,100.46898 C 249.23075,100.46889 249.22421,100.46899 249.22162,100.46898 C 249.21645,100.46897 249.21485,100.46843 249.21231,100.46898 z" style="fill:#000000;fill-opacity:1;fill-rule:evenodd;stroke:none;stroke-width:0.2;stroke-linecap:butt;stroke-linejoin:miter;stroke-miterlimit:4;stroke-dasharray:none;stroke-opacity:1;display:inline"/>
      <path sodipodi:nodetypes="ccscccccc" id="path3252" d="M 256.5602,128.19735 L 251.8889,133.0102 C 251.55631,133.24383 253.23636,144.45545 252.31356,147.44876 C 251.57958,149.82963 247.64227,155.51736 247.64227,155.51736 C 253.71957,153.37124 259.34787,148.72145 263.92103,144.47612 C 262.88134,133.10529 269.18541,127.02196 277.51027,122.39362 C 271.91107,116.55478 269.00224,110.30205 268.30922,103.70842 C 264.33802,102.94579 260.78126,102.59759 258.68352,103.70842 L 256.5602,128.19735 z" style="fill:#520f13;fill-opacity:1;fill-rule:evenodd;stroke:none;stroke-width:1;stroke-linecap:butt;stroke-linejoin:miter;stroke-miterlimit:4;stroke-dasharray:none;stroke-opacity:1"/>
      <path sodipodi:nodetypes="cssscc" id="path3254" d="M 251.8889,123.66761 C 252.39575,123.66761 252.75007,125.64937 254.43688,126.92336 C 259.50992,130.75485 265.05347,127.77269 266.04435,123.80916 C 267.03523,119.84564 265.33658,103.42532 263.35482,103.00065 C 261.37305,102.57599 258.1173,104.41619 258.1173,104.41619 C 257.06006,111.69014 258.6362,120.85081 251.8889,123.66761 z" style="fill:#333333;fill-opacity:1;fill-rule:evenodd;stroke:none;stroke-width:1px;stroke-linecap:butt;stroke-linejoin:miter;stroke-opacity:1"/>
      <path sodipodi:nodetypes="cssccc" id="path3456" d="M 296.43909,134.85003 C 286.31756,150.22336 273.79939,158.07195 257.93627,161.74539 C 223.42239,169.7378 208.85338,166.62401 183.1955,159.19741 C 163.33035,153.4475 146.10822,153.75694 126.29059,150.42103 C 188.48994,186.69356 203.38512,173.90989 226.79428,169.95555 C 262.2788,178.50527 289.71961,173.84793 296.43909,134.85003 z" style="fill:#ee355e;fill-opacity:1;fill-rule:evenodd;stroke:none;stroke-width:1px;stroke-linecap:butt;stroke-linejoin:miter;stroke-opacity:1;display:inline"/>
      <path sodipodi:nodetypes="cssc" id="path3550" d="M 43.717733,151.32776 C 43.717733,151.32776 91.362541,150.52701 95.366304,159.73567 C 99.370072,168.94433 97.744286,175.47928 91.762915,176.15111 C 83.765833,177.04934 37.226863,153.65114 43.717733,151.32776 z" style="fill:#cb0423;fill-opacity:1;fill-rule:evenodd;stroke:none;stroke-width:1px;stroke-linecap:butt;stroke-linejoin:miter;stroke-opacity:1"/>
      <path sodipodi:nodetypes="cssss" id="path3216" d="M 169.03032,145.08676 C 164.88443,142.45569 190.72075,143.34638 191.49191,144.84048 C 191.49191,144.84048 191.96836,148.45774 189.70924,148.78088 C 188.22666,148.99295 186.14391,146.87225 186.14391,146.87225 C 182.18135,144.75097 171.66784,146.76058 169.03032,145.08676 z" style="fill:#f2f2f2;fill-rule:evenodd;stroke:none;stroke-width:0.73988861px;stroke-linecap:butt;stroke-linejoin:miter;stroke-opacity:1"/>
      <path style="fill:#f2f2f2;fill-rule:evenodd;stroke:none;stroke-width:0.73988861px;stroke-linecap:butt;stroke-linejoin:miter;stroke-opacity:1" d="M 203.75296,154.40333 C 202.78394,156.98997 202.20761,141.66611 202.81648,141.13342 C 202.81648,141.13342 204.34206,140.6661 204.56354,141.98543 C 204.70889,142.85127 203.88124,144.1917 203.88124,144.1917 C 203.12293,146.64377 204.36942,152.75777 203.75296,154.40333 z" id="path3234" sodipodi:nodetypes="cssss"/>
      <path id="path3236" d="M 235.18547,139.09705 C 235.18547,139.09705 237.02568,154.38493 238.86589,153.11094 C 240.7061,151.83695 241.83853,144.05145 240.84765,141.92813 C 239.85677,139.80482 236.45946,134.85041 235.18547,139.09705 z" style="fill:#b3b3b3;fill-rule:evenodd;stroke:none;stroke-width:1px;stroke-linecap:butt;stroke-linejoin:miter;stroke-opacity:1"/>
      <path id="path3242" d="M 244.6768,139.02627 C 244.78371,141.09692 244.32821,142.77746 243.66007,142.77746 C 242.99193,142.77746 242.36291,141.09692 242.25601,139.02627 C 242.14911,136.95561 242.6046,135.27507 243.27274,135.27507 C 243.94088,135.27507 244.5699,136.95561 244.6768,139.02627 z" style="fill:#ffffff;fill-opacity:1;fill-rule:nonzero;stroke:none;stroke-width:1.5;stroke-linecap:round;stroke-linejoin:round;stroke-miterlimit:4;stroke-dashoffset:0;stroke-opacity:1"/>
      <path sodipodi:nodetypes="ccccz" id="path3263" d="M 80.500236,131.93629 C 74.931676,130.93487 60.874883,133.30492 46.695117,137.77968 L 46.723058,137.8635 C 65.618642,131.90056 80.393634,132.70326 92.568673,133.8343 C 93.032335,131.76959 86.068795,132.93771 80.500236,131.93629 z" style="fill:#000000;fill-opacity:1;fill-rule:evenodd;stroke:none;stroke-width:0.29999995;stroke-linecap:butt;stroke-linejoin:miter;stroke-miterlimit:4;stroke-dasharray:none;stroke-opacity:1"/>
      <path sodipodi:nodetypes="ccccc" id="path3269" d="M 274.79706,139.00909 C 266.86926,142.41364 259.92896,147.29235 248.2921,156.29341 L 247.55454,155.65456 C 259.19258,146.65259 266.24796,141.72947 274.84363,139.18605 L 274.79706,139.00909 z" style="fill:#000000;fill-opacity:1;fill-rule:evenodd;stroke:none;stroke-width:0.60000002;stroke-linecap:butt;stroke-linejoin:miter;stroke-miterlimit:4;stroke-dasharray:none;stroke-opacity:1"/>
      <path sodipodi:nodetypes="cscccc" id="path3275" d="M 284.04346,91.310853 C 280.1175,93.867756 276.846,96.836688 272.72801,99.215767 C 268.61002,101.59485 263.64598,103.39061 256.30969,103.59271 L 256.49051,104.33141 C 263.87923,104.12788 268.76259,102.07267 272.92293,99.669118 L 284.04346,91.310853 z" style="fill:#000000;fill-opacity:1;fill-rule:evenodd;stroke:none;stroke-width:1px;stroke-linecap:butt;stroke-linejoin:miter;stroke-opacity:1"/>
      <path sodipodi:nodetypes="ccccc" id="path3281" d="M 256.64465,161.45512 L 256.39318,161.62277 C 270.10385,175.07026 266.68594,182.4134 267.38335,190.79329 L 267.67207,190.73741 C 265.96123,182.57607 265.98042,175.73883 256.64465,161.45512 z" style="fill:#a50917;fill-opacity:1;fill-rule:evenodd;stroke:none;stroke-width:1px;stroke-linecap:butt;stroke-linejoin:miter;stroke-opacity:1"/>
      <path style="fill:#a50917;fill-opacity:1;fill-rule:evenodd;stroke:none;stroke-width:1px;stroke-linecap:butt;stroke-linejoin:miter;stroke-opacity:1" d="M 233.92365,162.5166 L 233.77101,162.60121 C 238.53334,179.53857 235.66044,185.52049 234.68974,193.72441 L 234.84347,193.75759 C 235.27104,185.45857 236.35829,178.94112 233.92365,162.5166 z" id="path3287" sodipodi:nodetypes="ccccc"/>
      <path sodipodi:nodetypes="ccccc" id="path3289" d="M 245.45773,163.45664 L 245.34696,163.5697 C 252.01928,179.23517 250.65575,185.66619 251.21087,193.90042 L 251.34187,193.90263 C 250.32755,185.68228 250.14471,179.07841 245.45773,163.45664 z" style="fill:#a50917;fill-opacity:1;fill-rule:evenodd;stroke:none;stroke-width:1px;stroke-linecap:butt;stroke-linejoin:miter;stroke-opacity:1"/>
      <path style="fill:#a50917;fill-opacity:1;fill-rule:evenodd;stroke:none;stroke-width:1px;stroke-linecap:butt;stroke-linejoin:miter;stroke-opacity:1" d="M 272.52578,156.29681 L 272.36892,156.44956 C 283.474,164.68632 281.91412,170.47653 283.34856,176.53928 L 283.54411,176.46408 C 281.42583,170.68171 280.6667,165.66533 272.52578,156.29681 z" id="path3291" sodipodi:nodetypes="ccccc"/>
      <path sodipodi:nodetypes="ccccc" id="path3293" d="M 291.74386,136.27799 L 291.58699,136.43073 C 302.69207,144.66749 301.13219,150.4577 302.56664,156.52046 L 302.76218,156.44525 C 300.64391,150.66289 299.88477,145.6465 291.74386,136.27799 z" style="fill:#a50917;fill-opacity:1;fill-rule:evenodd;stroke:none;stroke-width:1px;stroke-linecap:butt;stroke-linejoin:miter;stroke-opacity:1"/>
      <path style="fill:#a50917;fill-opacity:1;fill-rule:evenodd;stroke:none;stroke-width:1px;stroke-linecap:butt;stroke-linejoin:miter;stroke-opacity:1" d="M 118.4321,144.28552 L 118.58897,144.43826 C 107.48389,152.67502 109.04376,158.46523 107.60932,164.52799 L 107.41378,164.45278 C 109.53206,158.67042 110.29118,153.65403 118.4321,144.28552 z" id="path3295" sodipodi:nodetypes="ccccc"/>
      <path sodipodi:nodetypes="ccccc" id="path3297" d="M 140.02714,145.88702 L 140.2093,146.08056 C 127.31383,156.51667 129.12519,163.85297 127.45948,171.53458 L 127.23242,171.43929 C 129.69221,164.11294 130.57372,157.75709 140.02714,145.88702 z" style="fill:#a50917;fill-opacity:1;fill-rule:evenodd;stroke:none;stroke-width:1px;stroke-linecap:butt;stroke-linejoin:miter;stroke-opacity:1"/>
      <path style="fill:#860f13;fill-opacity:1;fill-rule:evenodd;stroke:none;stroke-width:1px;stroke-linecap:butt;stroke-linejoin:miter;stroke-opacity:1" d="M 254.84295,100.90876 L 254.59148,100.74111 C 269.5274,92.791164 265.13431,76.080414 265.58166,71.570585 L 265.87038,71.626468 C 264.30651,79.75106 265.92625,86.188162 254.84295,100.90876 z" id="path3299" sodipodi:nodetypes="ccccc"/>
      <path sodipodi:nodetypes="ccccc" id="path3301" d="M 185.37762,104.71233 L 185.12615,104.54469 C 198.83683,91.097191 195.41891,83.754046 196.11633,75.37416 L 196.40505,75.430044 C 194.6942,83.591378 194.7134,90.428619 185.37762,104.71233 z" style="fill:#860f13;fill-opacity:1;fill-rule:evenodd;stroke:none;stroke-width:1px;stroke-linecap:butt;stroke-linejoin:miter;stroke-opacity:1"/>
      <path style="fill:#860f13;fill-opacity:1;fill-rule:evenodd;stroke:none;stroke-width:1px;stroke-linecap:butt;stroke-linejoin:miter;stroke-opacity:1" d="M 195.38703,102.91064 L 195.13556,102.74299 C 208.84624,89.2955 205.42833,81.952354 206.12574,73.572469 L 206.41446,73.628352 C 204.70362,81.789686 204.72281,88.626927 195.38703,102.91064 z" id="path3303" sodipodi:nodetypes="ccccc"/>
      <path style="fill:#860f13;fill-opacity:1;fill-rule:evenodd;stroke:none;stroke-width:1px;stroke-linecap:butt;stroke-linejoin:miter;stroke-opacity:1" d="M 130.49183,114.92193 L 130.7433,114.75428 C 117.03262,101.30679 120.45053,93.963643 119.75312,85.583763 L 119.4644,85.639642 C 121.17525,93.800981 121.15605,100.63822 130.49183,114.92193 z" id="path3305" sodipodi:nodetypes="ccccc"/>
      <path sodipodi:nodetypes="csssc" id="path3524" d="M 217.67816,119.65235 C 217.67816,123.17467 219.03514,125.02584 216.09427,125.02584 C 213.15339,125.02584 207.88677,121.49545 207.88677,117.97313 C 207.88677,114.45081 208.25769,109.91291 211.19857,109.91291 C 214.13944,109.91291 217.67816,116.13003 217.67816,119.65235 z" style="fill:#ffffff;fill-opacity:1;fill-rule:nonzero;stroke:none;stroke-width:0.60000002;stroke-linecap:round;stroke-linejoin:round;stroke-miterlimit:4;stroke-dashoffset:0;stroke-opacity:1"/>
      <path style="fill:#ffffff;fill-opacity:1;fill-rule:nonzero;stroke:none;stroke-width:0.60000002;stroke-linecap:round;stroke-linejoin:round;stroke-miterlimit:4;stroke-dashoffset:0;stroke-opacity:1" d="M 173.34899,121.90757 C 174.17178,125.33244 175.04651,127.02613 174.08794,127.25642 C 173.12935,127.48672 170.58801,124.46641 169.76522,121.04154 C 168.94242,117.61667 168.00329,113.17527 168.96188,112.94497 C 169.92045,112.71469 172.52619,118.4827 173.34899,121.90757 z" id="path3527" sodipodi:nodetypes="csssc"/>
      <path style="fill:#ffffff;fill-opacity:1;fill-rule:nonzero;stroke:none;stroke-width:0.60000002;stroke-linecap:round;stroke-linejoin:round;stroke-miterlimit:4;stroke-dashoffset:0;stroke-opacity:1" d="M 248.79498,118.93098 C 247.54805,119.82103 247.23561,120.76918 246.49249,119.72809 C 245.74936,118.687 245.66832,115.93048 246.91525,115.04043 C 248.16219,114.15037 249.86237,113.135 250.6055,114.17609 C 251.34863,115.21718 250.04191,118.04093 248.79498,118.93098 z" id="path3529" sodipodi:nodetypes="csssc"/>
      <path sodipodi:nodetypes="cccc" id="path3537" d="M 276.78125,122.5625 L 276.78125,122.65625 C 283.35238,122.84426 286.81844,123.72915 289.8125,125.20936 C 288.87877,122.76992 281.33396,122.0874 276.78125,122.5625 z" style="fill:#000000;fill-opacity:1;fill-rule:evenodd;stroke:none;stroke-width:0.1;stroke-linecap:butt;stroke-linejoin:miter;stroke-miterlimit:4;stroke-dasharray:none;stroke-opacity:1"/>
    </g>
  </g>
  <metadata>
    <rdf:RDF>
      <cc:Work>
        <dc:format>image/svg+xml</dc:format>
        <dc:type rdf:resource="http://purl.org/dc/dcmitype/StillImage"/>
        <cc:license rdf:resource="http://creativecommons.org/licenses/publicdomain/"/>
        <dc:publisher>
          <cc:Agent rdf:about="http://openclipart.org/">
            <dc:title>Open Clip Art Library</dc:title>
          </cc:Agent>
        </dc:publisher>
        <dc:title>mouth</dc:title>
        <dc:date>2008-06-21T17:29:06</dc:date>
        <dc:description>Boca feita no Inkscape.</dc:description>
        <dc:source>http://openclipart.org/detail/17424/mouth-by-xeolhades</dc:source>
        <dc:creator>
          <cc:Agent>
            <dc:title>xeolhades</dc:title>
          </cc:Agent>
        </dc:creator>
        <dc:subject>
          <rdf:Bag>
            <rdf:li>clip art</rdf:li>
            <rdf:li>clipart</rdf:li>
            <rdf:li>how i did it</rdf:li>
            <rdf:li>image</rdf:li>
            <rdf:li>lips</rdf:li>
            <rdf:li>media</rdf:li>
            <rdf:li>mouth</rdf:li>
            <rdf:li>png</rdf:li>
            <rdf:li>public domain</rdf:li>
            <rdf:li>svg</rdf:li>
            <rdf:li>vetor</rdf:li>
          </rdf:Bag>
        </dc:subject>
      </cc:Work>
      <cc:License rdf:about="http://creativecommons.org/licenses/publicdomain/">
        <cc:permits rdf:resource="http://creativecommons.org/ns#Reproduction"/>
        <cc:permits rdf:resource="http://creativecommons.org/ns#Distribution"/>
        <cc:permits rdf:resource="http://creativecommons.org/ns#DerivativeWorks"/>
      </cc:License>
    </rdf:RDF>
  </metadata>
</svg>
